<?xml version="1.0" encoding="utf-8"?>
<!-- Generator: Adobe Illustrator 16.0.0, SVG Export Plug-In . SVG Version: 6.00 Build 0)  -->
<!DOCTYPE svg PUBLIC "-//W3C//DTD SVG 1.1//EN" "http://www.w3.org/Graphics/SVG/1.1/DTD/svg11.dtd">
<svg version="1.1" id="Layer_1" xmlns="http://www.w3.org/2000/svg" xmlns:xlink="http://www.w3.org/1999/xlink" x="0px" y="0px"
	 width="16px" height="16px" viewBox="0 0 16 16" enable-background="new 0 0 16 16" xml:space="preserve">
<path fill="#000100" d="M11.211,0.961H4.789c-0.534,0-0.973,0.439-0.973,0.973v12.457c0,0.535,0.438,0.973,0.973,0.973h6.422
	c0.534,0,0.973-0.438,0.973-0.973V1.934C12.184,1.4,11.745,0.961,11.211,0.961 M6.973,1.663h2.054c0.065,0,0.118,0.052,0.118,0.118
	c0,0.064-0.053,0.117-0.118,0.117H6.973c-0.065,0-0.119-0.053-0.119-0.117C6.854,1.714,6.907,1.663,6.973,1.663 M8,14.876
	c-0.27,0-0.486-0.217-0.486-0.485S7.73,13.904,8,13.904c0.269,0,0.485,0.218,0.485,0.486S8.269,14.876,8,14.876 M11.506,13.563
	H4.493V2.503h7.013V13.563z"/>
</svg>
