<?xml version="1.0" encoding="utf-8"?>
<!-- Generator: Adobe Illustrator 16.0.0, SVG Export Plug-In . SVG Version: 6.00 Build 0)  -->
<!DOCTYPE svg PUBLIC "-//W3C//DTD SVG 1.1//EN" "http://www.w3.org/Graphics/SVG/1.1/DTD/svg11.dtd">
<svg version="1.1" id="Layer_1" xmlns="http://www.w3.org/2000/svg" xmlns:xlink="http://www.w3.org/1999/xlink" x="0px" y="0px"
	 width="16px" height="16px" viewBox="0 0 16 16" enable-background="new 0 0 16 16" xml:space="preserve">
<polygon fill="#000100" points="13.713,10.637 13.708,10.616 13.725,10.585 13.724,10.565 13.717,10.543 13.707,10.526 
	13.698,10.517 13.688,10.51 13.681,10.501 13.677,10.489 13.684,10.454 13.68,10.436 13.672,10.416 13.653,10.387 13.645,10.367 
	13.642,10.352 13.642,10.313 13.64,10.295 13.565,10.1 13.551,10.07 13.548,10.062 13.544,10.054 13.528,10.045 13.521,10.033 
	13.516,10.026 13.509,10.017 13.507,10.006 13.521,9.988 13.524,9.982 13.527,9.968 13.524,9.922 13.519,9.907 13.507,9.9 
	13.49,9.895 13.478,9.888 13.47,9.877 13.456,9.841 13.449,9.813 13.436,9.781 13.436,9.767 13.445,9.755 13.462,9.739 
	13.474,9.721 13.468,9.705 13.463,9.697 13.462,9.681 13.46,9.673 13.453,9.667 13.425,9.648 13.395,9.639 13.387,9.633 
	13.368,9.617 13.359,9.611 13.35,9.607 13.343,9.604 13.339,9.594 13.334,9.582 13.33,9.574 13.322,9.566 13.304,9.557 
	13.295,9.549 13.289,9.54 13.285,9.532 13.278,9.522 13.268,9.521 13.265,9.517 13.251,9.501 13.248,9.493 13.245,9.488 
	13.226,9.479 13.219,9.474 13.214,9.467 13.21,9.452 13.206,9.444 13.192,9.433 13.177,9.428 13.139,9.427 13.128,9.419 
	13.122,9.399 13.118,9.362 13.112,9.346 13.1,9.327 13.084,9.313 13.068,9.318 13.051,9.324 13.03,9.321 12.994,9.304 12.985,9.293 
	12.979,9.29 12.96,9.297 12.951,9.298 12.932,9.297 12.915,9.302 12.906,9.313 12.899,9.324 12.888,9.334 12.888,9.276 
	12.902,9.252 12.923,9.231 12.96,9.198 12.997,9.165 13.033,9.13 13.071,9.097 13.107,9.063 13.145,9.029 13.182,8.995 
	13.219,8.962 13.234,8.946 13.245,8.942 13.264,8.938 13.272,8.935 13.283,8.926 13.335,8.862 13.357,8.828 13.36,8.79 
	13.332,8.762 13.3,8.748 13.287,8.739 13.275,8.724 13.217,8.573 13.194,8.54 13.162,8.526 13.143,8.527 13.127,8.53 13.112,8.53 
	13.096,8.521 13.08,8.503 13.073,8.483 13.07,8.44 13.062,8.42 13.026,8.36 13.022,8.343 13.021,8.289 13.013,8.269 13.007,8.266 
	13.01,8.25 13.004,8.235 12.994,8.225 12.987,8.198 12.97,8.181 12.955,8.167 12.947,8.151 12.943,8.125 12.937,8.099 12.931,8.07 
	12.937,8.038 12.95,8.01 12.953,8 12.949,7.988 12.938,7.969 12.937,7.958 12.938,7.952 12.941,7.939 12.941,7.933 12.938,7.927 
	12.928,7.923 12.923,7.92 12.917,7.89 12.911,7.879 12.895,7.867 12.895,7.873 12.887,7.868 12.878,7.861 12.873,7.852 12.87,7.843 
	12.873,7.832 12.877,7.826 12.884,7.822 12.888,7.814 12.889,7.806 12.888,7.779 12.894,7.756 12.896,7.709 12.899,7.69 
	12.909,7.676 12.916,7.663 12.918,7.625 12.923,7.609 12.92,7.601 12.92,7.596 12.923,7.59 12.923,7.58 12.921,7.574 12.913,7.559 
	12.911,7.553 12.912,7.533 12.918,7.5 12.929,7.467 12.931,7.45 12.929,7.413 12.931,7.407 12.937,7.403 12.938,7.398 12.941,7.388 
	12.938,7.382 12.922,7.365 12.918,7.356 12.913,7.349 12.912,7.34 12.911,7.331 12.911,7.321 12.913,7.311 12.922,7.29 
	12.923,7.283 12.922,7.262 12.92,7.248 12.913,7.234 12.906,7.221 12.897,7.188 12.905,7.152 12.928,7.118 12.959,7.092 
	12.963,7.091 12.973,7.093 12.977,7.092 12.98,7.088 12.989,7.078 12.994,7.074 13.021,7.065 13.026,7.06 13.042,7.042 
	13.051,7.035 13.062,7.033 13.066,7.029 13.076,6.997 13.081,6.991 13.088,6.985 13.092,6.978 13.096,6.968 13.092,6.964 
	13.08,6.952 13.076,6.948 13.075,6.931 13.065,6.88 13.065,6.841 13.071,6.804 13.085,6.77 13.106,6.739 13.156,6.691 13.165,6.677 
	13.206,6.633 13.219,6.626 13.249,6.612 13.26,6.604 13.264,6.59 13.26,6.569 13.255,6.552 13.233,6.537 13.201,6.487 13.201,6.454 
	13.204,6.442 13.214,6.432 13.236,6.416 13.201,6.412 13.178,6.394 13.154,6.372 13.13,6.356 12.996,6.325 12.935,6.319 
	12.92,6.316 12.911,6.316 12.902,6.321 12.886,6.337 12.877,6.345 12.867,6.347 12.855,6.346 12.846,6.349 12.842,6.36 12.84,6.369 
	12.836,6.377 12.828,6.384 12.819,6.386 12.812,6.388 12.781,6.398 12.746,6.403 12.637,6.393 12.601,6.398 12.502,6.433 
	12.47,6.433 12.414,6.418 12.396,6.416 12.377,6.417 12.315,6.437 12.261,6.439 12.251,6.444 12.229,6.463 12.217,6.469 
	12.196,6.466 12.161,6.449 12.143,6.446 12.124,6.444 12.069,6.427 12.052,6.423 11.995,6.427 11.978,6.423 11.957,6.416 
	11.937,6.411 11.922,6.416 11.891,6.401 11.873,6.397 11.852,6.398 11.835,6.406 11.811,6.428 11.793,6.44 11.742,6.488 
	11.691,6.516 11.673,6.501 11.637,6.46 11.619,6.451 11.596,6.455 11.556,6.474 11.533,6.48 11.522,6.48 11.497,6.449 11.433,6.367 
	11.367,6.285 11.303,6.202 11.237,6.121 11.172,6.038 11.107,5.957 11.041,5.874 10.976,5.792 10.961,5.773 10.934,5.749 
	10.908,5.744 10.876,5.745 10.846,5.753 10.797,5.78 10.771,5.779 10.681,5.736 10.668,5.731 10.665,5.73 10.659,5.721 
	10.656,5.719 10.649,5.719 10.629,5.721 10.618,5.721 10.605,5.717 10.598,5.712 10.554,5.658 10.547,5.651 10.533,5.654 
	10.51,5.663 10.495,5.663 10.465,5.655 10.457,5.653 10.445,5.643 10.44,5.64 10.414,5.64 10.362,5.653 10.325,5.655 10.292,5.667 
	10.274,5.667 10.268,5.671 10.264,5.68 10.255,5.692 10.219,5.717 10.175,5.734 10.128,5.739 10.068,5.733 10.061,5.738 
	10.053,5.746 10.043,5.753 10.026,5.758 10.019,5.756 10.012,5.75 10.003,5.745 9.96,5.744 9.949,5.739 9.943,5.73 9.943,5.72 
	9.941,5.71 9.934,5.704 9.921,5.702 9.884,5.709 9.87,5.708 9.843,5.701 9.828,5.699 9.817,5.702 9.793,5.712 9.783,5.715 
	9.767,5.701 9.747,5.696 9.731,5.701 9.729,5.701 9.73,5.702 9.714,5.701 9.712,5.701 9.71,5.698 9.709,5.693 9.706,5.69 
	9.697,5.692 9.687,5.698 9.679,5.701 9.674,5.7 9.664,5.692 9.658,5.686 9.651,5.681 9.623,5.68 9.611,5.681 9.606,5.688 
	9.608,5.702 9.585,5.696 9.565,5.697 9.545,5.701 9.52,5.701 9.521,5.716 9.516,5.719 9.507,5.717 9.498,5.718 9.486,5.726 
	9.479,5.731 9.47,5.737 9.456,5.739 9.427,5.737 9.331,5.715 9.321,5.709 9.301,5.692 9.289,5.685 9.266,5.675 9.256,5.668 
	9.24,5.651 9.193,5.56 9.185,5.536 9.178,5.511 9.176,5.486 9.176,5.478 9.185,5.443 9.182,5.438 9.178,5.436 9.147,5.397 
	9.119,5.389 9.049,5.39 9.007,5.383 8.969,5.37 8.938,5.347 8.913,5.309 8.911,5.288 8.917,5.271 8.923,5.254 8.927,5.235 
	8.924,5.218 8.911,5.185 8.91,5.167 8.918,5.076 8.935,5.024 8.937,5.009 8.935,4.971 8.932,4.956 8.925,4.947 8.908,4.927 
	8.902,4.918 8.906,4.908 8.913,4.903 8.923,4.899 8.932,4.894 8.945,4.884 8.955,4.873 8.963,4.859 8.967,4.843 8.976,4.827 
	8.992,4.825 9.01,4.828 9.024,4.828 9.037,4.808 9.036,4.775 9.019,4.716 8.99,4.663 8.985,4.643 8.986,4.629 8.993,4.601 
	8.996,4.586 8.993,4.573 8.986,4.558 8.978,4.545 8.969,4.535 8.96,4.53 8.952,4.528 8.943,4.525 8.933,4.516 8.912,4.494 
	8.896,4.476 8.879,4.458 8.862,4.439 8.846,4.421 8.828,4.403 8.811,4.385 8.795,4.367 8.778,4.348 8.762,4.331 8.744,4.302 
	8.736,4.268 8.726,4.229 8.717,4.192 8.707,4.155 8.697,4.116 8.687,4.079 8.677,4.041 8.666,4.003 8.656,3.965 8.652,3.949 
	8.638,3.933 8.65,3.913 8.646,3.902 8.632,3.894 8.615,3.879 8.608,3.886 8.603,3.886 8.595,3.883 8.585,3.883 8.574,3.886 
	8.566,3.89 8.539,3.909 8.521,3.916 8.504,3.911 8.489,3.89 8.483,3.871 8.486,3.835 8.482,3.814 8.481,3.81 8.473,3.802 
	8.471,3.798 8.471,3.794 8.473,3.787 8.473,3.783 8.463,3.752 8.457,3.746 8.438,3.746 8.4,3.782 8.38,3.792 8.359,3.798 
	8.344,3.809 8.314,3.835 8.283,3.851 8.248,3.856 8.142,3.858 8.13,3.852 8.13,3.833 8.14,3.816 8.172,3.794 8.187,3.78 
	8.197,3.763 8.228,3.688 8.296,3.586 8.313,3.548 8.324,3.537 8.359,3.516 8.373,3.501 8.382,3.485 8.404,3.426 8.451,3.354 
	8.479,3.298 8.484,3.276 8.482,3.259 8.473,3.244 8.469,3.222 8.47,3.204 8.477,3.17 8.477,3.136 8.521,2.983 8.539,2.793 
	8.539,2.776 8.539,2.759 8.545,2.743 8.558,2.725 8.574,2.711 8.585,2.695 8.601,2.649 8.653,2.587 8.677,2.55 8.718,2.431 
	8.738,2.393 8.761,2.367 8.799,2.34 8.814,2.325 8.83,2.304 8.859,2.231 8.867,2.222 8.883,2.204 8.89,2.195 8.892,2.186 
	8.893,2.17 8.896,2.162 8.911,2.152 8.931,2.149 8.967,2.147 9.015,2.129 9.032,2.126 9.049,2.128 9.08,2.136 9.096,2.132 
	9.104,2.12 9.131,2.073 9.156,2.025 9.182,1.978 9.207,1.93 9.232,1.882 9.259,1.834 9.284,1.787 9.311,1.74 9.319,1.723 
	9.333,1.702 9.351,1.69 9.372,1.685 9.423,1.672 9.474,1.658 9.524,1.645 9.574,1.632 9.624,1.619 9.675,1.606 9.726,1.593 
	9.775,1.58 9.8,1.574 9.832,1.559 9.862,1.534 9.877,1.526 9.903,1.526 9.908,1.52 9.925,1.472 9.929,1.465 9.94,1.463 9.954,1.458 
	9.968,1.451 9.984,1.432 10.044,1.399 10.066,1.381 10.077,1.368 10.088,1.35 10.094,1.33 10.087,1.313 10.055,1.265 10.049,1.241 
	9.995,1.152 9.995,1.136 9.99,1.129 9.986,1.124 9.978,1.109 9.961,1.097 9.932,1.082 9.893,1.075 9.875,1.068 9.858,1.056 
	9.851,1.052 9.819,1.053 9.81,1.05 9.802,1.045 9.79,1.034 9.764,1.017 9.745,1.008 9.729,1.004 9.667,1.004 9.647,1.001 
	9.621,0.989 9.605,0.986 9.586,0.99 9.57,0.999 9.557,1.013 9.549,1.029 9.555,1.034 9.562,1.025 9.585,1.005 9.596,0.998 
	9.592,1.003 9.591,1.008 9.589,1.022 9.595,1.017 9.601,1.013 9.608,1.011 9.619,1.011 9.61,1.017 9.604,1.024 9.603,1.031 
	9.61,1.034 9.616,1.031 9.624,1.028 9.633,1.024 9.643,1.022 9.635,1.032 9.624,1.038 9.612,1.041 9.602,1.046 9.599,1.047 
	9.591,1.051 9.586,1.056 9.594,1.059 9.597,1.061 9.595,1.067 9.591,1.073 9.589,1.077 9.585,1.077 9.58,1.064 9.572,1.058 
	9.566,1.05 9.572,1.034 9.565,1.035 9.557,1.037 9.548,1.041 9.542,1.046 9.539,1.055 9.542,1.057 9.548,1.058 9.549,1.059 
	9.547,1.075 9.539,1.085 9.529,1.091 9.514,1.101 9.511,1.101 9.499,1.101 9.494,1.102 9.495,1.106 9.496,1.11 9.495,1.113 
	9.482,1.117 9.479,1.116 9.473,1.113 9.462,1.101 9.464,1.088 9.474,1.078 9.49,1.071 9.48,1.065 9.474,1.066 9.46,1.077 
	9.455,1.077 9.44,1.077 9.437,1.079 9.433,1.09 9.432,1.094 9.399,1.122 9.36,1.148 9.366,1.161 9.371,1.161 9.378,1.153 
	9.387,1.149 9.396,1.147 9.407,1.148 9.418,1.152 9.424,1.158 9.428,1.165 9.437,1.172 9.432,1.181 9.433,1.188 9.439,1.196 
	9.443,1.205 9.439,1.213 9.431,1.215 9.418,1.213 9.407,1.214 9.399,1.219 9.392,1.226 9.387,1.236 9.383,1.247 9.381,1.25 
	9.354,1.262 9.339,1.255 9.325,1.232 9.313,1.226 9.349,1.189 9.352,1.173 9.321,1.166 9.233,1.182 9.207,1.172 9.188,1.183 
	9.18,1.191 9.178,1.203 9.181,1.203 9.188,1.206 9.196,1.213 9.202,1.22 9.204,1.238 9.208,1.287 9.207,1.304 9.202,1.315 
	9.182,1.34 9.173,1.37 9.143,1.417 9.131,1.449 9.13,1.457 9.127,1.465 9.11,1.481 9.1,1.495 9.055,1.514 9.017,1.54 8.988,1.547 
	8.967,1.566 8.953,1.573 8.938,1.577 8.886,1.58 8.867,1.586 8.848,1.599 8.83,1.609 8.812,1.604 8.785,1.623 8.772,1.628 
	8.72,1.64 8.688,1.65 8.674,1.66 8.523,1.782 8.42,1.837 8.37,1.884 8.342,1.896 8.333,1.905 8.32,1.921 8.313,1.928 8.304,1.932 
	8.298,1.935 8.288,1.955 8.281,1.964 8.278,1.967 8.255,1.979 8.229,1.999 8.224,2.006 8.215,2.011 8.12,2.026 7.958,2.026 
	7.86,2.034 7.757,2.026 7.724,2.015 7.695,1.999 7.655,1.991 7.649,1.989 7.634,1.975 7.62,1.964 7.604,1.958 7.582,1.955 
	7.574,1.957 7.568,1.959 7.566,1.961 7.564,1.968 7.558,1.968 7.551,1.96 7.548,1.966 7.542,1.975 7.534,1.979 7.525,1.976 
	7.52,1.962 7.511,1.955 7.511,1.974 7.505,1.974 7.503,1.97 7.502,1.97 7.501,1.97 7.499,1.968 7.497,1.973 7.487,1.985 
	7.482,1.977 7.482,1.974 7.481,1.968 7.475,1.968 7.477,1.989 7.471,1.993 7.459,1.99 7.446,1.991 7.435,2.012 7.433,2.021 
	7.43,2.025 7.427,2.028 7.422,2.033 7.411,2.048 7.407,2.057 7.404,2.066 7.405,2.068 7.407,2.07 7.409,2.073 7.41,2.077 
	7.409,2.082 7.4,2.09 7.398,2.093 7.4,2.101 7.409,2.116 7.41,2.125 7.409,2.134 7.404,2.149 7.404,2.159 7.408,2.166 7.419,2.182 
	7.422,2.19 7.419,2.199 7.366,2.276 7.357,2.295 7.352,2.329 7.348,2.333 7.337,2.348 7.334,2.353 7.332,2.359 7.322,2.379 
	7.323,2.403 7.322,2.409 7.297,2.455 7.296,2.462 7.293,2.465 7.276,2.481 7.268,2.485 7.262,2.486 7.229,2.488 7.215,2.486 
	7.207,2.476 7.203,2.435 7.196,2.417 7.187,2.405 7.17,2.402 7.172,2.413 7.167,2.419 7.161,2.427 7.157,2.438 7.158,2.451 
	7.164,2.46 7.172,2.462 7.182,2.457 7.178,2.472 7.166,2.479 7.153,2.48 7.14,2.474 7.137,2.441 7.14,2.433 7.131,2.433 7.125,2.43 
	7.122,2.423 7.122,2.414 7.112,2.424 7.11,2.438 7.104,2.451 7.093,2.457 7.087,2.451 7.086,2.438 7.087,2.412 7.09,2.399 
	7.093,2.382 7.102,2.367 7.108,2.364 7.119,2.371 7.14,2.371 7.146,2.379 7.155,2.368 7.167,2.376 7.18,2.39 7.193,2.397 
	7.172,2.356 7.162,2.331 7.166,2.32 7.174,2.316 7.174,2.307 7.173,2.297 7.175,2.289 7.185,2.285 7.194,2.285 7.203,2.287 
	7.213,2.289 7.296,2.292 7.338,2.283 7.357,2.26 7.317,2.279 7.26,2.282 7.203,2.276 7.157,2.267 7.115,2.246 7.083,2.239 
	6.968,2.195 6.941,2.178 6.887,2.17 6.878,2.164 6.876,2.157 6.87,2.153 6.859,2.161 6.843,2.185 6.839,2.185 6.835,2.189 
	6.804,2.224 6.768,2.256 6.764,2.263 6.758,2.272 6.746,2.279 6.735,2.284 6.726,2.289 6.725,2.297 6.719,2.317 6.716,2.325 
	6.717,2.339 6.705,2.354 6.688,2.363 6.654,2.371 6.601,2.408 6.592,2.411 6.581,2.414 6.571,2.414 6.563,2.418 6.549,2.435 
	6.519,2.445 6.511,2.46 6.515,2.477 6.532,2.486 6.537,2.481 6.551,2.468 6.551,2.477 6.551,2.485 6.553,2.491 6.557,2.498 
	6.539,2.515 6.532,2.522 6.527,2.522 6.527,2.516 6.521,2.51 6.522,2.507 6.524,2.505 6.527,2.501 6.525,2.496 6.521,2.493 
	6.517,2.492 6.512,2.489 6.506,2.491 6.5,2.499 6.492,2.513 6.483,2.519 6.428,2.534 6.406,2.543 6.4,2.545 6.4,2.549 6.396,2.559 
	6.389,2.567 6.386,2.567 6.383,2.577 6.377,2.579 6.37,2.578 6.362,2.582 6.36,2.583 6.354,2.586 6.352,2.588 6.35,2.591 6.356,2.6 
	6.356,2.605 6.348,2.612 6.339,2.619 6.327,2.622 6.317,2.624 6.31,2.627 6.302,2.636 6.296,2.644 6.301,2.647 6.311,2.65 
	6.313,2.657 6.314,2.666 6.315,2.676 6.314,2.678 6.31,2.689 6.309,2.695 6.317,2.695 6.324,2.696 6.327,2.701 6.329,2.717 
	6.329,2.74 6.324,2.758 6.313,2.766 6.298,2.759 6.302,2.745 6.311,2.727 6.315,2.712 6.307,2.717 6.283,2.746 6.278,2.75 
	6.267,2.754 6.262,2.759 6.259,2.767 6.254,2.783 6.25,2.79 6.259,2.788 6.263,2.785 6.266,2.78 6.269,2.771 6.273,2.771 
	6.279,2.795 6.284,2.801 6.292,2.796 6.296,2.796 6.298,2.816 6.305,2.839 6.305,2.859 6.295,2.867 6.263,2.886 6.245,2.891 
	6.238,2.873 6.233,2.88 6.232,2.888 6.233,2.896 6.238,2.903 6.22,2.901 6.216,2.909 6.221,2.92 6.218,2.93 6.211,2.94 6.204,2.951 
	6.2,2.959 6.188,2.962 6.173,2.971 6.148,2.988 6.137,3.004 6.156,3.01 6.185,2.992 6.22,2.956 6.257,2.926 6.292,2.927 
	6.286,2.936 6.286,2.944 6.286,2.952 6.286,2.962 6.283,2.972 6.279,2.977 6.273,2.986 6.265,3.006 6.262,3.01 6.255,3.013 
	6.249,3.015 6.243,3.017 6.238,3.022 6.237,3.038 6.249,3.075 6.25,3.094 6.24,3.149 6.235,3.161 6.227,3.177 6.216,3.216 
	6.206,3.233 6.201,3.249 6.201,3.288 6.194,3.304 6.162,3.357 6.127,3.39 6.132,3.396 6.148,3.39 6.165,3.386 6.182,3.387 
	6.191,3.396 6.203,3.394 6.216,3.405 6.227,3.422 6.233,3.438 6.237,3.455 6.24,3.47 6.233,3.545 6.221,3.58 6.203,3.61 
	6.179,3.633 6.173,3.627 6.162,3.641 6.148,3.641 6.132,3.636 6.111,3.633 6.093,3.636 6.077,3.645 6.05,3.663 6.05,3.656 
	6.047,3.652 6.043,3.649 6.039,3.646 6.032,3.649 6.026,3.651 6.021,3.649 6.015,3.646 6.026,3.636 6.037,3.633 6.05,3.635 
	6.061,3.64 6.061,3.629 6.057,3.622 6.051,3.618 6.044,3.616 6.023,3.624 5.993,3.629 5.966,3.631 5.95,3.627 5.943,3.627 
	5.934,3.635 5.91,3.658 5.883,3.678 5.856,3.693 5.821,3.704 5.814,3.708 5.806,3.713 5.796,3.723 5.793,3.731 5.791,3.746 
	5.791,3.763 5.788,3.771 5.775,3.775 5.773,3.777 5.749,3.787 5.743,3.788 5.738,3.8 5.727,3.871 5.723,3.885 5.715,3.895 
	5.686,3.921 5.67,3.94 5.661,3.965 5.668,3.995 5.661,4.005 5.63,4.027 5.621,4.039 5.617,4.046 5.61,4.053 5.594,4.054 
	5.573,4.066 5.521,4.079 5.514,4.086 5.521,4.096 5.521,4.101 5.501,4.119 5.456,4.149 5.418,4.188 5.406,4.195 5.348,4.217 
	5.332,4.22 5.332,4.226 5.337,4.226 5.337,4.231 5.33,4.236 5.326,4.245 5.325,4.254 5.324,4.264 5.32,4.271 5.31,4.277 
	5.226,4.301 5.203,4.303 5.119,4.33 5.109,4.347 5.088,4.372 5.073,4.394 5.084,4.403 5.084,4.397 5.109,4.399 5.14,4.414 
	5.168,4.433 5.185,4.452 5.19,4.466 5.193,4.481 5.199,4.494 5.211,4.499 5.222,4.505 5.226,4.522 5.226,4.642 5.231,4.67 
	5.242,4.698 5.244,4.717 5.235,4.746 5.235,4.766 5.239,4.786 5.242,4.799 5.249,4.799 5.245,4.792 5.244,4.787 5.245,4.783 
	5.249,4.775 5.26,4.796 5.261,4.821 5.254,4.874 5.253,4.882 5.244,4.89 5.242,4.898 5.244,4.906 5.245,4.911 5.245,4.917 
	5.242,4.924 5.236,4.931 5.228,4.936 5.219,4.94 5.208,4.941 5.154,4.94 5.109,4.926 5.085,4.895 5.101,4.847 5.1,4.847 
	5.097,4.847 5.096,4.845 5.096,4.841 5.108,4.827 5.128,4.825 5.151,4.832 5.172,4.841 5.166,4.831 5.159,4.824 5.15,4.818 
	5.144,4.811 5.151,4.81 5.157,4.811 5.163,4.813 5.166,4.818 5.168,4.814 5.168,4.813 5.169,4.811 5.161,4.803 5.157,4.801 
	5.148,4.799 5.148,4.793 5.178,4.783 5.178,4.775 5.169,4.78 5.166,4.783 5.16,4.783 5.16,4.772 5.162,4.763 5.168,4.755 
	5.172,4.747 5.119,4.747 5.119,4.764 5.1,4.767 5.079,4.754 5.072,4.723 5.076,4.725 5.085,4.727 5.09,4.729 5.091,4.716 5.1,4.702 
	5.096,4.693 5.084,4.705 5.084,4.688 5.07,4.695 5.06,4.688 5.054,4.674 5.054,4.652 5.059,4.654 5.061,4.658 5.067,4.658 
	5.067,4.644 5.061,4.635 5.054,4.635 5.049,4.646 5.037,4.643 5.015,4.643 5.001,4.641 4.983,4.626 4.914,4.513 4.904,4.501 
	4.892,4.492 4.849,4.475 4.792,4.437 4.784,4.418 4.777,4.385 4.772,4.369 4.765,4.356 4.756,4.346 4.746,4.335 4.735,4.319 
	4.727,4.287 4.713,4.28 4.711,4.283 4.709,4.285 4.708,4.287 4.707,4.292 4.706,4.303 4.697,4.309 4.682,4.311 4.67,4.314 
	4.654,4.323 4.653,4.329 4.658,4.338 4.659,4.353 4.648,4.375 4.614,4.41 4.607,4.436 4.607,4.456 4.614,4.46 4.641,4.458 
	4.656,4.464 4.664,4.471 4.681,4.495 4.69,4.525 4.698,4.584 4.706,4.615 4.716,4.63 4.727,4.633 4.738,4.635 4.749,4.639 
	4.756,4.648 4.773,4.688 4.803,4.731 4.83,4.78 4.849,4.847 4.85,4.868 4.854,4.88 4.864,4.888 4.873,4.894 4.881,4.903 
	4.888,4.917 4.883,4.92 4.85,4.92 4.824,4.926 4.797,4.936 4.77,4.949 4.752,4.968 4.729,5.016 4.704,5.048 4.7,5.059 4.712,5.084 
	4.73,5.101 4.735,5.118 4.711,5.139 4.589,5.214 4.55,5.254 4.529,5.271 4.51,5.272 4.501,5.263 4.49,5.22 4.483,5.208 4.46,5.176 
	4.456,5.175 4.45,5.173 4.447,5.171 4.447,5.168 4.452,5.16 4.452,5.158 4.443,5.148 4.4,5.112 4.393,5.107 4.371,5.118 4.365,5.15 
	4.37,5.187 4.378,5.213 4.396,5.251 4.399,5.269 4.393,5.292 4.379,5.307 4.362,5.317 4.344,5.32 4.322,5.315 4.293,5.412 
	4.259,5.523 4.266,5.525 4.279,5.544 4.289,5.552 4.302,5.556 4.295,5.561 4.307,5.565 4.313,5.575 4.319,5.586 4.328,5.591 
	4.343,5.593 4.354,5.598 4.415,5.665 4.43,5.685 4.438,5.685 4.438,5.679 4.434,5.675 4.43,5.672 4.425,5.662 4.43,5.662 
	4.456,5.713 4.467,5.747 4.456,5.762 4.434,5.772 4.425,5.796 4.43,5.856 4.438,5.852 4.438,5.845 4.438,5.838 4.442,5.833 
	4.452,5.829 4.455,5.832 4.459,5.836 4.481,5.842 4.494,5.85 4.519,5.874 4.536,5.897 4.571,5.974 4.567,5.983 4.566,5.994 
	4.566,6.015 4.571,6.015 4.578,6.012 4.583,6.011 4.588,6.009 4.588,6.003 4.584,5.997 4.594,5.983 4.611,5.971 4.631,5.966 
	4.66,5.982 4.67,5.985 4.675,5.989 4.678,6 4.677,6.012 4.672,6.029 4.672,6.038 4.681,6.043 4.686,6.049 4.69,6.056 4.695,6.062 
	4.726,6.085 4.731,6.099 4.733,6.119 4.73,6.137 4.718,6.15 4.718,6.167 4.715,6.181 4.7,6.204 4.7,6.209 4.711,6.216 4.719,6.226 
	4.722,6.237 4.718,6.251 4.715,6.248 4.712,6.246 4.709,6.244 4.707,6.238 4.688,6.245 4.686,6.252 4.7,6.274 4.704,6.283 
	4.705,6.296 4.704,6.311 4.7,6.327 4.69,6.359 4.681,6.374 4.672,6.38 4.651,6.354 4.619,6.327 4.614,6.333 4.619,6.343 
	4.619,6.358 4.614,6.389 4.612,6.423 4.614,6.436 4.625,6.451 4.678,6.515 4.699,6.548 4.713,6.586 4.718,6.586 4.718,6.563 
	4.726,6.563 4.759,6.655 4.76,6.674 4.765,6.678 4.769,6.681 4.803,6.738 4.816,6.769 4.819,6.804 4.817,6.814 4.814,6.824 
	4.81,6.833 4.803,6.842 4.796,6.848 4.784,6.855 4.774,6.862 4.772,6.872 4.77,6.875 4.765,6.875 4.758,6.873 4.755,6.875 
	4.754,6.879 4.755,6.889 4.755,6.892 4.751,6.898 4.75,6.905 4.747,6.911 4.741,6.916 4.723,6.922 4.708,6.917 4.695,6.909 
	4.681,6.904 4.668,6.907 4.66,6.912 4.652,6.919 4.642,6.927 4.633,6.93 4.614,6.931 4.605,6.933 4.597,6.946 4.577,6.988 
	4.567,6.997 4.558,6.999 4.55,7.004 4.548,7.012 4.555,7.021 4.56,7.022 4.568,7.019 4.579,7.019 4.588,7.027 4.592,7.018 
	4.598,7.012 4.605,7.009 4.619,7.009 4.631,7.014 4.64,7.02 4.645,7.029 4.654,7.039 4.66,7.041 4.673,7.043 4.678,7.045 
	4.682,7.051 4.683,7.054 4.682,7.058 4.689,7.084 4.691,7.092 4.7,7.098 4.694,7.103 4.69,7.104 4.688,7.101 4.683,7.098 
	4.678,7.098 4.678,7.112 4.681,7.122 4.689,7.125 4.7,7.122 4.703,7.156 4.708,7.172 4.716,7.18 4.72,7.188 4.718,7.208 
	4.718,7.226 4.731,7.233 4.72,7.258 4.712,7.286 4.708,7.315 4.713,7.444 4.718,7.458 4.729,7.568 4.736,7.603 4.74,7.602 
	4.75,7.598 4.755,7.597 4.761,7.626 4.797,7.669 4.807,7.697 4.802,7.697 4.793,7.683 4.782,7.668 4.768,7.658 4.749,7.655 
	4.751,7.667 4.752,7.68 4.755,7.692 4.774,7.702 4.777,7.715 4.774,7.729 4.772,7.738 4.765,7.734 4.761,7.729 4.757,7.722 
	4.755,7.714 4.754,7.832 4.744,7.872 4.741,7.896 4.76,7.89 4.76,7.896 4.74,7.904 4.731,7.917 4.726,7.954 4.72,7.968 4.695,8.002 
	4.728,8.056 4.74,8.07 4.753,8.072 4.825,8.072 4.802,8.104 4.786,8.117 4.772,8.125 4.759,8.13 4.753,8.128 4.74,8.11 4.729,8.107 
	4.719,8.11 4.711,8.117 4.707,8.122 4.704,8.134 4.695,8.136 4.683,8.134 4.672,8.137 4.661,8.145 4.656,8.155 4.654,8.167 
	4.654,8.192 4.658,8.219 4.664,8.242 4.668,8.248 4.678,8.261 4.659,8.262 4.654,8.274 4.659,8.289 4.663,8.296 4.707,8.33 
	4.702,8.343 4.706,8.354 4.718,8.361 4.731,8.36 4.733,8.354 4.736,8.33 4.74,8.326 4.749,8.316 4.755,8.294 4.757,8.271 
	4.755,8.254 4.762,8.256 4.765,8.256 4.768,8.256 4.772,8.261 4.773,8.254 4.775,8.252 4.775,8.252 4.772,8.248 4.772,8.242 
	4.779,8.238 4.786,8.236 4.793,8.238 4.802,8.242 4.806,8.234 4.807,8.225 4.806,8.215 4.802,8.207 4.815,8.215 4.824,8.226 
	4.835,8.234 4.849,8.23 4.85,8.238 4.853,8.241 4.857,8.242 4.866,8.242 4.853,8.272 4.829,8.299 4.823,8.309 4.819,8.319 
	4.849,8.313 4.849,8.319 4.835,8.323 4.795,8.33 4.806,8.32 4.803,8.313 4.797,8.311 4.782,8.313 4.774,8.318 4.771,8.326 
	4.765,8.348 4.763,8.355 4.761,8.361 4.76,8.368 4.761,8.378 4.763,8.38 4.766,8.38 4.776,8.388 4.792,8.394 4.795,8.397 
	4.792,8.403 4.779,8.411 4.777,8.419 4.812,8.436 4.874,8.425 4.924,8.397 4.92,8.36 4.929,8.364 4.938,8.366 4.96,8.366 
	4.955,8.37 4.949,8.372 4.949,8.377 5.001,8.366 5.001,8.372 4.988,8.383 4.979,8.398 4.97,8.413 4.931,8.426 4.933,8.44 
	4.938,8.459 4.926,8.471 4.926,8.462 4.925,8.456 4.92,8.452 4.914,8.446 4.899,8.459 4.898,8.47 4.906,8.48 4.92,8.489 
	4.914,8.499 4.904,8.505 4.893,8.509 4.878,8.507 4.883,8.514 4.888,8.517 4.895,8.519 4.904,8.519 4.912,8.521 4.918,8.524 
	4.92,8.527 4.916,8.529 4.897,8.528 4.885,8.524 4.86,8.507 4.855,8.52 4.854,8.534 4.857,8.548 4.869,8.552 4.905,8.542 
	4.92,8.542 4.912,8.552 4.897,8.558 4.884,8.56 4.878,8.563 4.883,8.575 4.892,8.577 4.902,8.573 4.914,8.571 4.926,8.575 
	4.922,8.578 4.908,8.583 4.898,8.585 4.89,8.595 4.884,8.597 4.876,8.597 4.866,8.588 4.857,8.613 4.853,8.624 4.837,8.642 
	4.833,8.649 4.835,8.655 4.849,8.658 4.823,8.666 4.815,8.667 4.819,8.658 4.819,8.653 4.802,8.654 4.782,8.658 4.786,8.667 
	4.79,8.671 4.782,8.671 4.779,8.673 4.775,8.675 4.772,8.677 4.775,8.68 4.784,8.687 4.79,8.688 4.774,8.688 4.762,8.685 
	4.752,8.687 4.749,8.7 4.762,8.696 4.78,8.695 4.792,8.699 4.79,8.711 4.782,8.708 4.779,8.707 4.774,8.709 4.772,8.718 
	4.779,8.718 4.795,8.724 4.791,8.726 4.788,8.728 4.782,8.729 4.791,8.733 4.797,8.737 4.801,8.744 4.802,8.753 4.797,8.749 
	4.79,8.743 4.784,8.739 4.771,8.739 4.762,8.744 4.757,8.744 4.755,8.737 4.755,8.731 4.756,8.727 4.757,8.722 4.76,8.718 
	4.751,8.718 4.741,8.718 4.749,8.735 4.743,8.75 4.735,8.765 4.731,8.782 4.731,8.785 4.74,8.796 4.741,8.803 4.74,8.807 
	4.734,8.803 4.729,8.794 4.726,8.787 4.718,8.798 4.713,8.812 4.715,8.824 4.722,8.838 4.75,8.872 4.755,8.882 4.731,8.874 
	4.721,8.858 4.7,8.823 4.685,8.839 4.681,8.841 4.669,8.843 4.654,8.847 4.646,8.845 4.636,8.851 4.625,8.86 4.619,8.869 
	4.63,8.876 4.66,8.88 4.672,8.887 4.677,8.898 4.674,8.913 4.669,8.926 4.66,8.933 4.656,8.937 4.633,8.94 4.633,8.942 4.619,8.964 
	4.611,8.966 4.604,8.964 4.598,8.964 4.595,8.972 4.595,8.979 4.591,8.988 4.587,8.997 4.567,9.005 4.571,9.017 4.579,9.029 
	4.584,9.042 4.55,9.104 4.487,9.114 4.459,9.116 4.43,9.104 4.431,9.114 4.43,9.126 4.428,9.136 4.425,9.146 4.408,9.171 
	4.406,9.181 4.414,9.177 4.438,9.157 4.439,9.167 4.446,9.171 4.455,9.169 4.466,9.163 4.463,9.159 4.463,9.157 4.466,9.157 
	4.466,9.15 4.471,9.157 4.477,9.159 4.483,9.159 4.488,9.163 4.493,9.171 4.49,9.172 4.486,9.175 4.482,9.185 4.477,9.188 
	4.477,9.192 4.479,9.196 4.492,9.2 4.495,9.204 4.496,9.212 4.495,9.218 4.492,9.22 4.483,9.228 4.479,9.234 4.479,9.241 
	4.476,9.241 4.466,9.239 4.456,9.231 4.45,9.224 4.442,9.218 4.43,9.216 4.419,9.225 4.414,9.242 4.414,9.261 4.419,9.273 
	4.438,9.263 4.463,9.259 4.482,9.267 4.477,9.286 4.475,9.28 4.47,9.275 4.463,9.271 4.454,9.269 4.445,9.28 4.434,9.282 
	4.42,9.284 4.406,9.292 4.396,9.306 4.428,9.315 4.438,9.333 4.43,9.333 4.428,9.329 4.422,9.321 4.419,9.315 4.406,9.318 
	4.391,9.317 4.378,9.313 4.372,9.313 4.365,9.318 4.356,9.324 4.354,9.329 4.365,9.339 4.373,9.339 4.387,9.331 4.395,9.333 
	4.398,9.338 4.394,9.341 4.386,9.343 4.381,9.343 4.369,9.348 4.356,9.356 4.345,9.362 4.33,9.356 4.33,9.364 4.331,9.37 
	4.334,9.372 4.343,9.374 4.336,9.382 4.336,9.39 4.338,9.394 4.347,9.397 4.343,9.405 4.343,9.411 4.348,9.418 4.36,9.421 
	4.36,9.427 4.343,9.427 4.343,9.433 4.354,9.437 4.368,9.447 4.378,9.462 4.383,9.474 4.383,9.489 4.374,9.503 4.36,9.515 
	4.339,9.521 4.328,9.521 4.307,9.525 4.296,9.525 4.278,9.521 4.27,9.521 4.251,9.515 4.251,9.498 4.258,9.48 4.266,9.467 
	4.25,9.472 4.24,9.469 4.232,9.459 4.224,9.444 4.22,9.452 4.219,9.462 4.22,9.472 4.224,9.479 4.218,9.487 4.201,9.493 
	4.192,9.499 4.188,9.508 4.195,9.515 4.207,9.521 4.212,9.529 4.171,9.562 4.159,9.558 4.147,9.553 4.137,9.542 4.129,9.532 
	4.125,9.534 4.111,9.535 4.106,9.538 4.101,9.544 4.099,9.547 4.098,9.549 4.095,9.556 4.095,9.557 4.096,9.562 4.096,9.568 
	4.095,9.574 4.077,9.578 4.063,9.587 4.055,9.588 4.042,9.584 4.011,9.569 4.004,9.564 3.99,9.549 3.984,9.551 3.983,9.564 
	3.979,9.567 3.973,9.558 3.967,9.546 3.967,9.538 3.95,9.547 3.93,9.565 3.911,9.587 3.9,9.596 3.892,9.607 3.876,9.624 
	3.859,9.632 3.854,9.616 3.847,9.607 3.812,9.579 3.8,9.574 3.774,9.579 3.773,9.625 3.757,9.638 3.716,9.634 3.706,9.638 
	3.699,9.645 3.688,9.684 3.685,9.669 3.682,9.654 3.683,9.64 3.688,9.625 3.676,9.64 3.665,9.666 3.653,9.713 3.647,9.713 
	3.647,9.702 3.622,9.747 3.614,9.771 3.624,9.791 3.605,9.796 3.597,9.809 3.588,9.822 3.579,9.834 3.574,9.848 3.597,9.867 
	3.581,9.877 3.588,9.885 3.597,9.888 3.604,9.884 3.611,9.877 3.608,9.893 3.604,9.903 3.597,9.913 3.598,9.932 3.607,9.947 
	3.607,9.957 3.598,9.971 3.604,9.983 3.597,10.006 3.598,10.011 3.613,10.009 3.621,9.997 3.628,9.987 3.639,9.982 3.647,9.985 
	3.655,9.992 3.662,10.003 3.665,10.009 3.664,10.02 3.659,10.041 3.658,10.054 3.664,10.062 3.672,10.063 3.681,10.066 
	3.694,10.073 3.697,10.073 3.698,10.075 3.699,10.082 3.699,10.09 3.698,10.096 3.695,10.099 3.694,10.103 3.692,10.115 
	3.689,10.129 3.682,10.152 3.668,10.176 3.665,10.185 3.664,10.197 3.66,10.204 3.652,10.205 3.639,10.205 3.637,10.203 
	3.63,10.189 3.628,10.175 3.622,10.173 3.619,10.175 3.617,10.176 3.598,10.171 3.569,10.17 3.541,10.171 3.523,10.176 
	3.516,10.162 3.501,10.156 3.481,10.154 3.432,10.152 3.42,10.155 3.405,10.164 3.388,10.182 3.362,10.196 3.354,10.203 
	3.34,10.212 3.333,10.218 3.329,10.226 3.328,10.233 3.325,10.243 3.316,10.258 3.271,10.303 3.265,10.32 3.268,10.334 
	3.275,10.345 3.287,10.353 3.3,10.356 3.36,10.361 3.372,10.365 3.378,10.369 3.393,10.38 3.396,10.381 3.41,10.39 3.413,10.39 
	3.424,10.385 3.429,10.387 3.436,10.399 3.436,10.415 3.434,10.432 3.436,10.445 3.443,10.455 3.454,10.463 3.465,10.472 
	3.471,10.486 3.456,10.492 3.506,10.527 3.524,10.551 3.55,10.572 3.559,10.586 3.567,10.605 3.58,10.623 3.597,10.636 
	3.617,10.642 3.63,10.64 3.643,10.636 3.651,10.64 3.652,10.655 3.655,10.664 3.673,10.682 3.679,10.696 3.689,10.689 3.703,10.688 
	3.751,10.698 3.767,10.711 3.849,10.802 3.867,10.815 3.885,10.823 3.936,10.838 3.953,10.847 4.066,10.931 4.101,10.948 
	4.162,10.95 4.221,10.973 4.23,10.973 4.234,10.97 4.239,10.97 4.247,10.979 4.251,10.987 4.251,10.997 4.251,11.007 4.261,11.015 
	4.28,11.023 4.299,11.026 4.316,11.026 4.334,11.023 4.402,10.997 4.424,10.997 4.448,11.018 4.454,11.079 4.474,11.105 
	4.529,11.146 4.561,11.156 4.589,11.153 4.625,11.161 4.638,11.202 4.643,11.293 4.649,11.322 4.654,11.348 4.663,11.368 
	4.687,11.386 4.716,11.397 4.808,11.416 4.823,11.421 4.836,11.427 4.85,11.433 4.868,11.432 4.912,11.415 4.926,11.412 
	4.956,11.419 4.989,11.457 5.016,11.466 5.049,11.466 5.06,11.467 5.075,11.473 5.084,11.478 5.102,11.497 5.117,11.509 
	5.129,11.512 5.142,11.513 5.202,11.503 5.212,11.505 5.242,11.519 5.256,11.519 5.254,11.484 5.265,11.48 5.294,11.488 
	5.336,11.492 5.348,11.497 5.362,11.506 5.386,11.527 5.4,11.532 5.414,11.531 5.437,11.52 5.521,11.509 5.537,11.5 5.528,11.443 
	5.53,11.38 5.53,11.374 5.539,11.376 5.557,11.374 5.565,11.372 5.573,11.37 5.596,11.345 5.6,11.341 5.604,11.338 5.619,11.324 
	5.63,11.323 5.639,11.325 5.661,11.352 5.679,11.362 5.695,11.37 5.713,11.374 5.735,11.376 5.753,11.374 5.764,11.375 
	5.771,11.378 5.774,11.388 5.78,11.409 5.784,11.417 5.8,11.416 5.822,11.408 5.842,11.406 5.85,11.419 5.854,11.429 5.91,11.502 
	5.916,11.513 5.919,11.529 5.929,11.543 5.95,11.563 6.002,11.595 6.009,11.606 6.044,11.632 6.068,11.645 6.082,11.651 6.1,11.655 
	6.119,11.656 6.138,11.654 6.175,11.646 6.191,11.644 6.208,11.65 6.222,11.662 6.233,11.674 6.242,11.68 6.257,11.685 
	6.296,11.721 6.347,11.752 6.368,11.759 6.385,11.771 6.433,11.779 6.488,11.799 6.503,11.809 6.517,11.804 6.53,11.794 
	6.54,11.781 6.545,11.77 6.548,11.754 6.556,11.744 6.569,11.743 6.586,11.743 6.624,11.754 6.643,11.764 6.659,11.776 
	6.693,11.822 6.703,11.832 6.711,11.835 6.725,11.835 6.734,11.836 6.74,11.841 6.774,11.878 6.785,11.887 6.804,11.896 
	6.834,11.902 6.848,11.907 6.856,11.906 6.867,11.899 6.888,11.865 6.897,11.862 6.916,11.878 6.928,11.896 6.958,11.955 
	6.934,11.973 6.927,11.984 6.941,11.988 6.95,11.989 6.968,11.994 6.989,11.996 6.994,11.999 6.998,12.002 7.003,12.008 
	7.009,12.012 7.011,12.016 7.017,12.02 7.028,12.02 7.032,12.018 7.037,12.014 7.045,12.009 7.054,12.008 7.062,12.014 
	7.087,12.054 7.123,12.092 7.146,12.11 7.198,12.141 7.208,12.15 7.22,12.162 7.228,12.174 7.23,12.176 7.243,12.178 7.247,12.181 
	7.249,12.189 7.25,12.198 7.252,12.206 7.293,12.295 7.29,12.301 7.279,12.31 7.276,12.316 7.276,12.333 7.28,12.347 7.31,12.378 
	7.315,12.382 7.324,12.384 7.339,12.385 7.347,12.389 7.339,12.401 7.345,12.412 7.354,12.42 7.357,12.431 7.353,12.44 7.34,12.44 
	7.327,12.438 7.315,12.44 7.31,12.449 7.315,12.458 7.338,12.473 7.347,12.482 7.357,12.521 7.378,12.548 7.399,12.56 7.451,12.569 
	7.503,12.589 7.527,12.589 7.54,12.563 7.55,12.571 7.571,12.632 7.574,12.64 7.582,12.645 7.593,12.649 7.598,12.648 7.601,12.643 
	7.61,12.64 7.613,12.635 7.616,12.63 7.621,12.627 7.629,12.634 7.63,12.642 7.622,12.655 7.624,12.662 7.634,12.669 7.661,12.663 
	7.675,12.668 7.681,12.676 7.694,12.71 7.708,12.734 7.717,12.743 7.729,12.751 7.752,12.759 7.767,12.762 7.776,12.762 
	7.791,12.754 7.804,12.732 7.817,12.727 7.825,12.743 7.837,12.755 7.852,12.765 7.873,12.769 7.882,12.771 7.898,12.783 
	7.92,12.788 7.922,12.796 7.926,12.807 7.931,12.818 7.933,12.828 7.935,12.832 7.938,12.834 7.95,12.831 7.951,12.832 
	7.955,12.837 7.958,12.846 7.959,12.864 7.96,12.869 7.964,12.878 7.969,12.883 7.981,12.888 7.978,12.898 7.964,12.913 
	7.972,12.928 8.004,12.94 8.014,12.957 8.032,12.97 8.038,12.979 8.04,12.987 8.04,12.996 8.042,13.008 8.051,13.043 8.05,13.061 
	8.028,13.072 8.021,13.084 8.011,13.113 8.01,13.146 8.026,13.167 8.082,13.202 8.084,13.205 8.087,13.215 8.087,13.22 8.092,13.22 
	8.102,13.219 8.113,13.22 8.122,13.22 8.134,13.221 8.145,13.228 8.165,13.246 8.174,13.248 8.18,13.239 8.193,13.225 8.207,13.223 
	8.237,13.23 8.24,13.228 8.246,13.205 8.254,13.205 8.277,13.23 8.286,13.236 8.293,13.239 8.3,13.245 8.306,13.255 8.3,13.286 
	8.305,13.298 8.324,13.322 8.329,13.335 8.328,13.342 8.318,13.365 8.318,13.377 8.321,13.39 8.327,13.401 8.342,13.424 
	8.348,13.44 8.352,13.459 8.359,13.477 8.37,13.487 8.345,13.529 8.338,13.548 8.306,13.575 8.298,13.584 8.296,13.592 8.295,13.6 
	8.296,13.606 8.305,13.62 8.306,13.626 8.309,13.63 8.32,13.639 8.323,13.644 8.328,13.669 8.329,13.675 8.343,13.686 8.38,13.694 
	8.389,13.702 8.395,13.72 8.405,13.709 8.415,13.689 8.417,13.681 8.477,13.714 8.48,13.719 8.492,13.729 8.506,13.769 
	8.515,13.783 8.521,13.787 8.529,13.787 8.565,13.781 8.577,13.777 8.588,13.768 8.612,13.759 8.633,13.747 8.648,13.753 
	8.67,13.769 8.673,13.759 8.677,13.751 8.685,13.744 8.694,13.738 8.699,13.745 8.703,13.753 8.706,13.761 8.707,13.784 
	8.714,13.786 8.727,13.781 8.737,13.771 8.761,13.725 8.771,13.71 8.788,13.713 8.802,13.721 8.842,13.753 8.858,13.757 
	8.945,13.771 8.953,13.778 8.959,13.787 8.969,13.799 8.984,13.808 9.001,13.81 9.02,13.809 9.054,13.8 9.074,13.798 9.081,13.795 
	9.084,13.789 9.083,13.771 9.088,13.768 9.109,13.763 9.118,13.763 9.174,13.775 9.188,13.771 9.225,13.728 9.249,13.707 
	9.272,13.697 9.3,13.697 9.354,13.706 9.371,13.702 9.381,13.691 9.383,13.674 9.391,13.666 9.432,13.634 9.463,13.588 
	9.466,13.578 9.474,13.578 9.524,13.547 9.543,13.538 9.55,13.542 9.549,13.573 9.557,13.586 9.573,13.584 9.602,13.57 
	9.622,13.573 9.639,13.583 9.654,13.596 9.673,13.604 9.723,13.614 9.732,13.623 9.735,13.639 9.737,13.675 9.742,13.688 
	9.756,13.694 9.763,13.685 9.771,13.652 9.784,13.641 9.792,13.644 9.809,13.669 9.828,13.695 9.831,13.704 9.828,13.711 
	9.818,13.722 9.813,13.728 9.823,13.747 9.852,13.74 9.913,13.71 9.921,13.722 9.938,13.719 9.954,13.709 9.967,13.704 
	9.977,13.706 9.986,13.714 9.995,13.717 10.005,13.716 10.021,13.702 10.046,13.689 10.062,13.65 10.081,13.641 10.106,13.636 
	10.117,13.636 10.138,13.65 10.148,13.651 10.159,13.651 10.167,13.646 10.159,13.624 10.157,13.604 10.166,13.594 10.191,13.594 
	10.229,13.609 10.248,13.613 10.268,13.604 10.293,13.621 10.338,13.668 10.367,13.688 10.398,13.699 10.415,13.702 10.437,13.706 
	10.441,13.709 10.444,13.717 10.444,13.741 10.446,13.744 10.474,13.766 10.479,13.774 10.481,13.783 10.481,13.795 10.482,13.806 
	10.488,13.81 10.524,13.81 10.529,13.808 10.53,13.799 10.529,13.789 10.532,13.781 10.547,13.771 10.558,13.778 10.567,13.79 
	10.583,13.798 10.598,13.8 10.613,13.805 10.628,13.811 10.639,13.82 10.644,13.829 10.646,13.838 10.651,13.847 10.661,13.851 
	10.67,13.85 10.69,13.842 10.7,13.839 10.718,13.839 10.736,13.841 10.748,13.849 10.743,13.867 10.74,13.87 10.726,13.876 
	10.721,13.88 10.721,13.887 10.726,13.896 10.73,13.901 10.734,13.903 10.756,13.898 10.772,13.889 10.791,13.883 10.81,13.893 
	10.819,13.908 10.832,13.944 10.842,13.959 10.857,13.965 10.872,13.959 10.885,13.954 10.903,13.968 10.905,13.978 10.904,13.984 
	10.907,13.993 10.915,13.996 10.923,13.994 10.927,13.987 10.931,13.979 10.936,13.971 10.953,13.959 10.963,13.966 10.974,14.003 
	10.979,14.015 10.986,14.025 10.996,14.033 11.002,14.035 11.002,14.035 10.981,14.066 10.914,14.171 10.846,14.274 10.779,14.38 
	10.711,14.483 10.644,14.59 10.576,14.694 10.51,14.8 10.442,14.903 10.414,14.949 10.45,14.952 10.567,15.014 10.576,15.02 
	10.623,15.031 10.646,15.031 10.668,15.022 10.7,14.991 10.721,14.979 10.743,14.978 10.776,14.988 10.81,15.012 10.837,15.041 
	10.858,15.071 10.868,15.102 10.874,15.132 10.883,15.159 10.904,15.183 10.993,15.228 11.019,15.248 11.035,15.269 11.051,15.29 
	11.075,15.337 11.089,15.308 11.115,15.169 11.14,15.031 11.165,14.894 11.19,14.755 11.216,14.617 11.241,14.48 11.267,14.341 
	11.292,14.204 11.316,14.066 11.342,13.929 11.367,13.79 11.393,13.652 11.417,13.516 11.443,13.378 11.468,13.239 11.493,13.103 
	11.503,13.051 11.516,13.008 11.516,12.99 11.53,12.931 11.53,12.893 11.545,12.813 11.541,12.774 11.561,12.727 11.551,12.701 
	11.519,12.65 11.519,12.641 11.524,12.622 11.526,12.612 11.521,12.58 11.523,12.577 11.52,12.571 11.518,12.567 11.513,12.566 
	11.504,12.565 11.499,12.562 11.48,12.533 11.473,12.528 11.454,12.521 11.446,12.515 11.44,12.503 11.441,12.494 11.443,12.486 
	11.441,12.477 11.436,12.468 11.432,12.463 11.426,12.459 11.418,12.455 11.412,12.441 11.409,12.434 11.412,12.412 11.405,12.399 
	11.372,12.363 11.364,12.343 11.369,12.327 11.396,12.287 11.401,12.268 11.398,12.257 11.396,12.249 11.389,12.243 11.384,12.235 
	11.383,12.228 11.383,12.202 11.378,12.183 11.371,12.164 11.36,12.15 11.345,12.138 11.331,12.13 11.263,12.104 11.249,12.093 
	11.223,12.066 11.215,12.061 11.195,12.051 11.187,12.045 11.18,12.035 11.172,12.017 11.166,12.008 11.152,11.999 11.118,11.991 
	11.102,11.986 11.093,11.979 11.072,11.949 11.028,11.91 10.996,11.872 10.986,11.854 10.981,11.823 10.982,11.781 10.983,11.76 
	10.985,11.702 10.986,11.621 10.988,11.527 10.991,11.436 10.994,11.354 10.996,11.296 10.996,11.273 10.997,11.214 11.011,11.227 
	11.027,11.222 11.045,11.213 11.064,11.213 11.086,11.217 11.102,11.214 11.118,11.211 11.177,11.206 11.211,11.198 11.245,11.188 
	11.273,11.171 11.307,11.146 11.32,11.146 11.344,11.155 11.372,11.161 11.384,11.146 11.393,11.129 11.41,11.12 11.426,11.12 
	11.454,11.102 11.472,11.094 11.492,11.091 11.51,11.096 11.526,11.105 11.586,11.167 11.593,11.171 11.609,11.162 11.629,11.156 
	11.644,11.156 11.651,11.165 11.649,11.189 11.664,11.188 11.696,11.193 11.71,11.192 11.716,11.188 11.725,11.175 11.732,11.171 
	11.741,11.171 11.756,11.177 11.764,11.178 11.78,11.171 11.785,11.162 11.782,11.146 11.773,11.129 11.768,11.122 11.748,11.112 
	11.742,11.105 11.738,11.096 11.744,11.088 11.753,11.081 11.76,11.071 11.76,11.054 11.752,11.015 11.753,10.995 11.759,10.994 
	11.768,10.992 11.773,10.987 11.773,10.977 11.768,10.97 11.757,10.963 11.737,10.955 11.724,10.942 11.729,10.912 11.71,10.9 
	11.706,10.892 11.706,10.883 11.703,10.874 11.696,10.867 11.683,10.856 11.668,10.839 11.656,10.831 11.612,10.81 11.6,10.807 
	11.585,10.81 11.545,10.839 11.536,10.838 11.519,10.827 11.516,10.823 11.513,10.819 11.509,10.815 11.501,10.813 11.492,10.811 
	11.466,10.815 11.438,10.815 11.429,10.815 11.391,10.802 11.371,10.802 11.289,10.813 11.28,10.811 11.278,10.793 11.271,10.789 
	11.26,10.785 11.248,10.785 11.228,10.792 11.191,10.813 11.171,10.813 11.172,10.761 11.172,10.702 11.172,10.645 11.173,10.586 
	11.173,10.527 11.173,10.467 11.173,10.408 11.173,10.352 11.173,10.292 11.169,10.26 11.211,10.26 11.225,10.255 11.263,10.235 
	11.276,10.231 11.293,10.231 11.311,10.235 11.346,10.231 11.405,10.205 11.438,10.203 11.5,10.217 11.566,10.244 11.601,10.249 
	12.08,10.249 12.256,10.247 12.623,10.247 12.609,10.24 12.602,10.235 12.599,10.23 12.601,10.22 12.597,10.211 12.591,10.207 
	12.559,10.205 12.557,10.19 12.559,10.171 12.55,10.162 12.528,10.158 12.522,10.155 12.54,10.129 12.591,10.003 12.599,9.996 
	12.603,10.003 12.603,10.02 12.604,10.026 12.611,10.032 12.617,10.035 12.635,10.038 12.654,10.047 12.668,10.059 12.676,10.074 
	12.695,10.129 12.713,10.166 12.735,10.2 12.765,10.223 12.794,10.23 12.825,10.23 12.855,10.223 12.884,10.213 12.918,10.193 
	12.943,10.169 13.047,10.032 13.113,9.963 13.146,9.947 13.17,9.927 13.184,9.918 13.214,9.914 13.223,9.91 13.237,9.894 
	13.245,9.89 13.257,9.892 13.295,9.903 13.308,9.91 13.33,9.933 13.348,9.964 13.374,10.032 13.396,10.067 13.489,10.19 
	13.522,10.256 13.552,10.347 13.559,10.401 13.538,10.646 13.541,10.69 13.55,10.714 13.566,10.717 13.642,10.696 13.696,10.681 
	13.73,10.673 "/>
</svg>
