<?xml version="1.0" encoding="utf-8"?>
<!-- Generator: Adobe Illustrator 16.0.0, SVG Export Plug-In . SVG Version: 6.00 Build 0)  -->
<!DOCTYPE svg PUBLIC "-//W3C//DTD SVG 1.1//EN" "http://www.w3.org/Graphics/SVG/1.1/DTD/svg11.dtd">
<svg version="1.1" id="Layer_1" xmlns="http://www.w3.org/2000/svg" xmlns:xlink="http://www.w3.org/1999/xlink" x="0px" y="0px"
	 width="16px" height="16px" viewBox="0 0 16 16" enable-background="new 0 0 16 16" xml:space="preserve">
<g>
	<path fill="#000100" d="M5.675,1.872c0.284,0,0.76,0.522,0.76,0.854c0,0.19-3.274,2.705-3.274,4.271
		c0,1.234,2.277,2.467,2.277,3.702c0,0.997-1.423,2.942-2.229,2.942c-0.38,0-2.421-2.848-2.421-4.034
		C0.787,6.191,5.343,1.872,5.675,1.872z M14.455,1.872c0.285,0,0.759,0.522,0.759,0.854c0,0.19-3.274,2.705-3.274,4.271
		c0,1.234,2.277,2.467,2.277,3.702c0,0.997-1.423,2.942-2.23,2.942c-0.379,0-2.42-2.848-2.42-4.034
		C9.566,6.191,14.122,1.872,14.455,1.872z"/>
</g>
</svg>
