<?xml version="1.0" encoding="utf-8"?>
<!-- Generator: Adobe Illustrator 16.0.0, SVG Export Plug-In . SVG Version: 6.00 Build 0)  -->
<!DOCTYPE svg PUBLIC "-//W3C//DTD SVG 1.1//EN" "http://www.w3.org/Graphics/SVG/1.1/DTD/svg11.dtd">
<svg version="1.1" id="Layer_1" xmlns="http://www.w3.org/2000/svg" xmlns:xlink="http://www.w3.org/1999/xlink" x="0px" y="0px"
	 width="16px" height="16px" viewBox="0 0 16 16" enable-background="new 0 0 16 16" xml:space="preserve">
<g>
	<defs>
		<rect id="SVGID_1_" x="2.375" y="0.53" width="11.25" height="14.939"/>
	</defs>
	<clipPath id="SVGID_2_">
		<use xlink:href="#SVGID_1_"  overflow="visible"/>
	</clipPath>
	<path clip-path="url(#SVGID_2_)" d="M13.088,5.618h-1.061V3.417c0-1.591-1.296-2.886-2.888-2.886H6.865
		c-1.592,0-2.887,1.295-2.887,2.886v2.201H2.916c-0.299,0-0.541,0.242-0.541,0.542v5.285c0,2.208,1.795,4.002,4,4.002h3.254
		c2.205,0,4.001-1.796,4.001-4.002V6.16C13.63,5.86,13.388,5.618,13.088,5.618 M5.062,3.417c0-0.995,0.81-1.804,1.804-1.804H9.14
		c0.995,0,1.805,0.809,1.805,1.804v2.201H5.062V3.417z M12.548,11.445c0,1.61-1.311,2.919-2.919,2.919H6.375
		c-1.607,0-2.918-1.309-2.918-2.919V6.701h9.091V11.445z"/>
</g>
</svg>
