<?xml version="1.0" encoding="utf-8"?>
<!-- Generator: Adobe Illustrator 16.0.0, SVG Export Plug-In . SVG Version: 6.00 Build 0)  -->
<!DOCTYPE svg PUBLIC "-//W3C//DTD SVG 1.1//EN" "http://www.w3.org/Graphics/SVG/1.1/DTD/svg11.dtd">
<svg version="1.1" id="Layer_1" xmlns="http://www.w3.org/2000/svg" xmlns:xlink="http://www.w3.org/1999/xlink" x="0px" y="0px"
	 width="16px" height="16px" viewBox="0 0 16 16" enable-background="new 0 0 16 16" xml:space="preserve">
<g>
	<defs>
		<rect id="SVGID_3_" x="5.071" y="0.724" width="5.856" height="14.877"/>
	</defs>
	<clipPath id="SVGID_2_">
		<use xlink:href="#SVGID_3_"  overflow="visible"/>
	</clipPath>
	<path clip-path="url(#SVGID_2_)" fill="#000100" d="M10.541,3.964V3.477L8.928,3.021C8.842,2.809,8.57,2.646,8.225,2.6V0.829
		l-0.16-0.104L7.927,0.829v1.759C7.538,2.614,7.221,2.785,7.123,3.011L5.688,3.524v0.537L5.071,4.223v10.882l2.953,0.349
		l2.914-0.349V4.069L10.541,3.964z M5.719,14.772l-0.235-0.024V4.784l0.235-0.056V14.772z M6.286,14.84l-0.244-0.028V4.657
		l0.244-0.058V14.84z M6.919,14.891l-0.252-0.027V4.496l0.252-0.061V14.891z M7.579,14.965l-0.264-0.027V4.347l0.264-0.064V14.965z
		 M8.821,14.884l-0.271,0.027V4.21l0.271,0.065V14.884z M9.453,14.837l-0.27,0.026V4.377l0.27,0.065V14.837z M10.036,14.779
		l-0.244,0.027V4.531l0.244,0.059V14.779z M10.593,14.735l-0.25,0.029V4.675l0.25,0.061V14.735z"/>
</g>
</svg>
