<?xml version="1.0" encoding="utf-8"?>
<!-- Generator: Adobe Illustrator 16.0.0, SVG Export Plug-In . SVG Version: 6.00 Build 0)  -->
<!DOCTYPE svg PUBLIC "-//W3C//DTD SVG 1.1//EN" "http://www.w3.org/Graphics/SVG/1.1/DTD/svg11.dtd">
<svg version="1.1" id="Layer_1" xmlns="http://www.w3.org/2000/svg" xmlns:xlink="http://www.w3.org/1999/xlink" x="0px" y="0px"
	 width="16px" height="16px" viewBox="0 0 16 16" enable-background="new 0 0 16 16" xml:space="preserve">
<polygon fill="#000100" points="12.924,10.238 12.842,10.095 12.76,9.952 12.678,9.809 12.596,9.664 12.516,9.521 12.434,9.378 
	12.352,9.234 12.271,9.092 12.248,9.053 12.234,9.053 12.139,9.063 12.111,9.059 12.082,9.038 12.068,9.033 12.047,9.031 
	12.016,9.033 12.002,9.032 11.986,9.028 11.953,9.027 11.764,9.123 11.732,9.135 11.693,9.142 11.652,9.144 11.613,9.137 
	11.578,9.119 11.559,9.102 11.523,9.06 11.502,9.041 11.484,9.045 11.418,9.099 11.418,9.035 11.42,8.935 11.42,8.834 11.42,8.733 
	11.42,8.634 11.42,8.532 11.42,8.433 11.42,8.332 11.42,8.232 11.42,8.185 11.428,8.153 11.434,8.146 11.439,8.139 11.445,8.133 
	11.453,8.128 11.459,8.128 11.467,8.134 11.471,8.132 11.475,8.128 11.477,8.118 11.479,8.113 11.488,8.101 11.494,8.087 
	11.496,8.072 11.492,8.056 11.482,8.044 11.459,8.026 11.449,8.015 11.445,8 11.439,7.975 11.432,7.96 11.436,7.96 11.457,7.958 
	11.461,7.96 11.471,7.962 11.479,7.96 11.467,7.94 11.469,7.931 11.475,7.924 11.486,7.921 11.484,7.919 11.482,7.912 11.48,7.909 
	11.496,7.903 11.5,7.894 11.5,7.88 11.51,7.866 11.51,7.864 11.51,7.854 11.477,7.856 11.461,7.86 11.445,7.868 11.43,7.882 
	11.402,7.915 11.387,7.931 11.336,7.96 11.32,7.972 11.291,8.001 11.275,8.013 11.236,8.034 11.223,8.049 11.201,8.081 
	11.191,8.089 11.172,8.102 11.162,8.108 11.156,8.118 11.146,8.138 11.141,8.147 11.127,8.157 11.078,8.171 11.025,8.194 
	11.014,8.204 11.002,8.221 10.996,8.239 10.984,8.255 10.947,8.267 10.92,8.288 10.904,8.296 10.895,8.298 10.887,8.294 
	10.881,8.288 10.873,8.286 10.863,8.286 10.857,8.292 10.855,8.298 10.848,8.304 10.834,8.307 10.805,8.307 10.664,8.306 
	10.525,8.306 10.387,8.306 10.205,8.306 10.213,8.29 10.215,8.276 10.213,8.263 10.215,8.245 10.219,8.237 10.23,8.224 
	10.232,8.213 10.23,8.205 10.225,8.189 10.223,8.181 10.205,8.149 10.15,8.114 10.141,8.085 10.15,8.056 10.154,8.04 10.148,8.026 
	10.129,8.001 10.121,7.987 10.119,7.972 10.119,7.948 10.119,7.94 10.113,7.935 10.105,7.934 10.098,7.935 10.09,7.935 
	10.074,7.925 10.053,7.905 10.039,7.897 10.023,7.895 9.975,7.897 9.939,7.894 9.926,7.89 9.893,7.874 9.861,7.863 9.846,7.86 
	9.844,7.86 9.836,7.865 9.834,7.866 9.828,7.864 9.822,7.858 9.818,7.856 9.723,7.839 9.41,7.837 9.426,7.811 9.467,7.769 
	9.486,7.745 9.498,7.72 9.508,7.708 9.518,7.702 9.527,7.7 9.541,7.696 9.551,7.69 9.555,7.681 9.555,7.659 9.592,7.631 9.6,7.621 
	9.605,7.606 9.609,7.583 9.602,7.517 9.596,7.504 9.574,7.472 9.564,7.461 9.535,7.441 9.523,7.433 9.463,7.345 9.451,7.312 
	9.441,7.296 9.428,7.283 9.414,7.274 9.367,7.266 9.352,7.257 9.338,7.243 9.303,7.2 9.299,7.188 9.299,7.173 9.305,7.138 
	9.305,7.122 9.301,7.107 9.287,7.096 9.281,7.094 9.264,7.091 9.258,7.089 9.25,7.081 9.236,7.064 9.229,7.058 9.166,7.023 
	9.154,7.013 9.15,6.997 9.146,6.966 9.139,6.945 9.117,6.915 9.107,6.897 9.104,6.883 9.109,6.854 9.107,6.839 9.1,6.819 
	9.074,6.784 9.068,6.768 9.057,6.743 9.025,6.727 8.992,6.714 8.971,6.694 8.965,6.685 8.957,6.646 8.957,6.633 8.969,6.634 
	8.994,6.643 9.02,6.626 9.029,6.597 9.021,6.565 8.998,6.547 8.969,6.538 8.945,6.527 8.924,6.513 8.82,6.406 8.789,6.388 
	8.781,6.374 8.82,6.358 8.828,6.341 8.83,6.325 8.836,6.313 8.84,6.3 8.836,6.28 8.813,6.242 8.811,6.228 8.828,6.228 8.859,6.241 
	8.873,6.241 8.891,6.235 8.92,6.218 8.932,6.214 8.953,6.212 8.984,6.214 9,6.211 9.012,6.203 9.021,6.188 9.02,6.173 9.012,6.159 
	9.004,6.125 8.951,6.048 8.943,6.03 8.949,6.011 8.959,5.989 8.979,5.917 8.98,5.874 8.984,5.861 8.992,5.853 9.025,5.832 
	9.033,5.822 9.043,5.802 9.053,5.794 9.074,5.78 9.113,5.749 9.178,5.714 9.229,5.668 9.26,5.649 9.287,5.624 9.305,5.618 
	9.359,5.618 9.395,5.608 9.422,5.595 9.443,5.572 9.463,5.54 9.475,5.509 9.479,5.491 9.479,5.474 9.473,5.456 9.455,5.421 
	9.451,5.403 9.443,5.34 9.438,5.327 9.4,5.284 9.393,5.266 9.395,5.229 9.406,5.2 9.424,5.173 9.467,5.074 9.496,5.05 9.576,4.942 
	9.588,4.921 9.596,4.897 9.609,4.825 9.609,4.804 9.602,4.778 9.598,4.753 9.605,4.728 9.629,4.679 9.631,4.667 9.637,4.634 
	9.643,4.622 9.652,4.612 9.658,4.602 9.66,4.589 9.656,4.542 9.652,4.528 9.645,4.519 9.639,4.504 9.643,4.493 9.66,4.488 
	9.67,4.487 9.676,4.485 9.688,4.481 9.689,4.477 9.689,4.466 9.691,4.462 9.695,4.462 9.705,4.465 9.711,4.466 9.74,4.459 
	9.754,4.452 9.764,4.44 9.773,4.433 9.789,4.435 9.805,4.438 9.848,4.438 9.854,4.437 9.861,4.431 9.865,4.423 9.865,4.415 
	9.869,4.407 9.879,4.397 9.9,4.388 9.92,4.366 9.932,4.357 9.945,4.351 9.961,4.349 9.971,4.349 9.977,4.344 9.979,4.337 
	9.982,4.33 9.982,4.327 9.982,4.323 9.984,4.318 9.986,4.313 9.99,4.313 10,4.312 10.004,4.312 10.021,4.303 10.033,4.294 
	10.043,4.28 10.049,4.239 10.057,4.229 10.09,4.22 10.094,4.216 10.096,4.211 10.1,4.206 10.107,4.203 10.137,4.208 10.148,4.207 
	10.162,4.202 10.176,4.194 10.217,4.165 10.258,4.142 10.273,4.129 10.283,4.117 10.297,4.089 10.303,4.083 10.309,4.083 
	10.316,4.087 10.324,4.089 10.33,4.088 10.338,4.083 10.35,4.072 10.373,4.065 10.41,4.029 10.43,4.016 10.443,4.011 10.508,4.005 
	10.514,4.003 10.516,3.999 10.518,3.993 10.52,3.989 10.525,3.985 10.533,3.986 10.551,3.995 10.561,3.997 10.576,3.995 
	10.584,3.989 10.592,3.986 10.605,3.995 10.613,4.003 10.619,4.007 10.625,4.006 10.637,4.003 10.652,3.987 10.66,3.984 
	10.656,4.001 10.693,3.985 10.703,3.985 10.723,3.989 10.73,3.989 10.734,3.984 10.738,3.968 10.742,3.96 10.754,3.956 
	10.766,3.954 10.789,3.954 10.826,3.948 10.836,3.95 10.844,3.956 10.848,3.964 10.855,3.969 10.865,3.964 10.869,3.962 
	10.875,3.952 10.881,3.95 10.885,3.951 10.891,3.954 10.893,3.954 10.9,3.944 10.9,3.937 10.898,3.929 10.9,3.919 10.914,3.907 
	10.932,3.903 10.949,3.907 10.971,3.932 10.98,3.92 10.994,3.901 11.006,3.894 11.01,3.899 11.02,3.917 11.025,3.923 11.039,3.925 
	11.045,3.92 11.057,3.902 11.074,3.896 11.115,3.912 11.131,3.899 11.135,3.882 11.146,3.897 11.162,3.911 11.18,3.896 11.186,3.88 
	11.195,3.868 11.219,3.845 11.227,3.833 11.23,3.818 11.236,3.808 11.25,3.802 11.262,3.798 11.264,3.79 11.258,3.771 11.26,3.761 
	11.27,3.751 11.307,3.733 11.314,3.733 11.363,3.745 11.377,3.746 11.387,3.739 11.395,3.716 11.402,3.707 11.414,3.702 
	11.426,3.704 11.428,3.716 11.424,3.729 11.426,3.741 11.463,3.763 11.469,3.755 11.473,3.741 11.479,3.728 11.49,3.722 
	11.502,3.726 11.506,3.737 11.508,3.749 11.516,3.754 11.529,3.75 11.561,3.724 11.572,3.72 11.584,3.716 11.596,3.718 
	11.607,3.723 11.627,3.74 11.637,3.743 11.65,3.72 11.66,3.724 11.67,3.733 11.676,3.745 11.678,3.761 11.672,3.79 11.672,3.804 
	11.68,3.813 11.719,3.845 11.725,3.847 11.732,3.847 11.738,3.849 11.744,3.855 11.75,3.868 11.76,3.879 11.773,3.866 11.787,3.837 
	11.797,3.822 11.811,3.813 11.828,3.813 11.844,3.818 11.852,3.833 11.855,3.853 11.859,3.858 11.869,3.868 11.879,3.874 
	11.891,3.877 11.9,3.876 11.928,3.856 11.941,3.838 11.949,3.817 11.947,3.796 11.926,3.753 11.91,3.733 11.895,3.714 11.871,3.695 
	11.793,3.655 11.771,3.634 11.764,3.608 11.76,3.581 11.75,3.554 11.73,3.526 11.705,3.501 11.676,3.479 11.646,3.469 11.625,3.472 
	11.607,3.481 11.576,3.509 11.557,3.519 11.537,3.519 11.494,3.507 11.486,3.501 11.381,3.446 11.346,3.442 11.373,3.401 
	11.434,3.308 11.494,3.212 11.557,3.117 11.617,3.021 11.678,2.927 11.74,2.831 11.801,2.737 11.863,2.643 11.881,2.614 
	11.881,2.613 11.875,2.611 11.867,2.605 11.859,2.596 11.855,2.584 11.846,2.55 11.836,2.545 11.82,2.555 11.816,2.562 11.813,2.57 
	11.809,2.576 11.801,2.578 11.795,2.574 11.793,2.568 11.793,2.56 11.791,2.552 11.775,2.54 11.762,2.544 11.75,2.549 11.734,2.545 
	11.727,2.53 11.715,2.497 11.705,2.483 11.688,2.475 11.674,2.48 11.658,2.488 11.639,2.494 11.635,2.492 11.629,2.486 
	11.625,2.479 11.625,2.473 11.629,2.469 11.643,2.464 11.646,2.461 11.65,2.445 11.641,2.438 11.623,2.436 11.607,2.436 
	11.598,2.438 11.58,2.445 11.57,2.446 11.563,2.441 11.559,2.436 11.555,2.428 11.551,2.419 11.541,2.41 11.527,2.403 11.512,2.398 
	11.5,2.397 11.486,2.391 11.479,2.38 11.467,2.373 11.453,2.382 11.453,2.39 11.453,2.398 11.451,2.406 11.445,2.408 11.414,2.408 
	11.408,2.404 11.408,2.396 11.408,2.385 11.406,2.377 11.4,2.368 11.377,2.348 11.373,2.347 11.373,2.324 11.371,2.317 
	11.367,2.314 11.348,2.312 11.332,2.309 11.305,2.298 11.277,2.28 11.236,2.237 11.213,2.223 11.197,2.23 11.178,2.227 
	11.145,2.213 11.121,2.212 11.113,2.223 11.115,2.24 11.123,2.26 11.115,2.264 11.105,2.266 11.096,2.264 11.076,2.252 
	11.066,2.251 11.045,2.254 11.027,2.264 11.012,2.3 10.99,2.311 10.975,2.322 10.967,2.324 10.959,2.321 10.949,2.314 10.939,2.313 
	10.93,2.316 10.914,2.326 10.898,2.329 10.893,2.318 10.836,2.345 10.811,2.351 10.801,2.334 10.805,2.328 10.814,2.318 
	10.818,2.313 10.814,2.305 10.797,2.281 10.781,2.257 10.773,2.254 10.764,2.266 10.756,2.295 10.75,2.304 10.736,2.298 
	10.732,2.285 10.73,2.254 10.727,2.239 10.719,2.232 10.674,2.223 10.656,2.215 10.643,2.203 10.627,2.193 10.609,2.19 
	10.582,2.204 10.566,2.206 10.561,2.193 10.563,2.166 10.557,2.162 10.539,2.17 10.494,2.198 10.486,2.198 10.482,2.207 
	10.453,2.25 10.416,2.277 10.41,2.283 10.408,2.301 10.398,2.311 10.385,2.314 10.334,2.308 10.311,2.308 10.287,2.316 
	10.266,2.334 10.232,2.374 10.221,2.377 10.17,2.365 10.162,2.367 10.143,2.371 10.137,2.374 10.139,2.39 10.137,2.396 
	10.129,2.397 10.111,2.398 10.08,2.407 10.063,2.408 10.049,2.406 10.035,2.398 10.023,2.389 10.02,2.38 10.014,2.373 9.934,2.361 
	9.92,2.356 9.883,2.328 9.869,2.32 9.855,2.318 9.846,2.331 9.824,2.373 9.814,2.382 9.803,2.387 9.797,2.385 9.795,2.365 
	9.793,2.356 9.789,2.35 9.785,2.344 9.775,2.349 9.77,2.354 9.766,2.361 9.764,2.371 9.744,2.356 9.73,2.353 9.711,2.361 
	9.688,2.369 9.68,2.379 9.668,2.383 9.635,2.39 9.627,2.39 9.621,2.385 9.613,2.371 9.602,2.335 9.59,2.326 9.588,2.321 
	9.533,2.292 9.531,2.301 9.521,2.317 9.512,2.327 9.508,2.311 9.5,2.304 9.467,2.295 9.453,2.287 9.451,2.281 9.447,2.258 
	9.445,2.254 9.434,2.245 9.432,2.242 9.43,2.236 9.424,2.225 9.422,2.217 9.422,2.209 9.426,2.204 9.432,2.195 9.461,2.171 
	9.467,2.154 9.49,2.116 9.48,2.105 9.475,2.09 9.471,2.072 9.465,2.058 9.451,2.038 9.445,2.027 9.443,2.016 9.443,2.004 
	9.451,1.984 9.453,1.979 9.449,1.965 9.43,1.943 9.426,1.933 9.432,1.903 9.426,1.895 9.42,1.891 9.414,1.889 9.404,1.883 
	9.385,1.859 9.377,1.859 9.373,1.879 9.369,1.883 9.342,1.876 9.33,1.877 9.316,1.889 9.313,1.898 9.303,1.896 9.285,1.879 
	9.275,1.874 9.266,1.872 9.258,1.873 9.246,1.871 9.238,1.872 9.234,1.872 9.234,1.869 9.23,1.859 9.229,1.855 9.18,1.825 
	9.162,1.807 9.164,1.775 9.174,1.75 9.18,1.739 9.199,1.728 9.199,1.713 9.191,1.681 9.191,1.67 9.191,1.662 9.189,1.654 
	9.184,1.646 9.166,1.634 9.158,1.621 9.129,1.607 9.121,1.596 9.135,1.58 9.137,1.572 9.125,1.566 9.121,1.562 9.117,1.556 
	9.117,1.55 9.115,1.533 9.113,1.527 9.111,1.521 9.107,1.521 9.098,1.521 9.096,1.521 9.094,1.518 9.092,1.509 9.086,1.498 
	9.084,1.488 9.08,1.481 9.063,1.477 9.047,1.465 9.039,1.463 9.02,1.459 9.006,1.451 8.994,1.439 8.988,1.426 8.977,1.43 
	8.963,1.449 8.951,1.457 8.941,1.457 8.928,1.453 8.908,1.447 8.898,1.439 8.891,1.432 8.877,1.41 8.863,1.379 8.859,1.372 
	8.846,1.367 8.822,1.372 8.811,1.367 8.811,1.361 8.818,1.347 8.816,1.341 8.811,1.334 8.807,1.337 8.803,1.342 8.801,1.346 
	8.791,1.35 8.789,1.354 8.783,1.354 8.773,1.351 8.768,1.346 8.764,1.339 8.746,1.285 8.736,1.276 8.725,1.299 8.703,1.3 
	8.656,1.282 8.609,1.273 8.59,1.262 8.57,1.239 8.561,1.204 8.553,1.194 8.533,1.181 8.527,1.174 8.533,1.164 8.543,1.163 
	8.557,1.165 8.566,1.165 8.57,1.156 8.566,1.146 8.559,1.139 8.555,1.13 8.561,1.117 8.555,1.115 8.541,1.113 8.533,1.112 
	8.527,1.108 8.502,1.08 8.496,1.068 8.498,1.053 8.5,1.047 8.51,1.037 8.512,1.033 8.475,0.952 8.473,0.945 8.473,0.938 8.471,0.93 
	8.467,0.926 8.455,0.926 8.451,0.924 8.445,0.912 8.436,0.901 8.426,0.893 8.377,0.864 8.357,0.85 8.326,0.814 8.303,0.777 
	8.295,0.771 8.287,0.773 8.279,0.777 8.275,0.781 8.271,0.783 8.262,0.782 8.256,0.779 8.254,0.775 8.25,0.771 8.244,0.768 
	8.24,0.764 8.236,0.762 8.217,0.76 8.201,0.756 8.193,0.756 8.18,0.75 8.186,0.74 8.207,0.724 8.18,0.67 8.17,0.654 8.152,0.641 
	8.145,0.643 8.125,0.674 8.115,0.68 8.107,0.68 8.096,0.676 8.068,0.671 8.051,0.664 8.041,0.655 8.01,0.621 8.004,0.617 
	7.998,0.615 7.984,0.615 7.977,0.612 7.967,0.604 7.938,0.562 7.922,0.551 7.904,0.542 7.871,0.532 7.854,0.531 7.844,0.533 
	7.836,0.541 7.832,0.557 7.828,0.566 7.82,0.578 7.807,0.588 7.795,0.592 7.785,0.604 7.768,0.615 7.758,0.621 7.748,0.624 
	7.736,0.624 7.709,0.621 7.703,0.621 7.682,0.635 7.66,0.633 7.605,0.604 7.596,0.602 7.584,0.602 7.57,0.603 7.559,0.6 
	7.545,0.595 7.531,0.59 7.52,0.595 7.514,0.607 7.518,0.625 7.525,0.641 7.533,0.648 7.541,0.65 7.557,0.648 7.564,0.65 
	7.574,0.655 7.59,0.671 7.6,0.676 7.615,0.682 7.629,0.689 7.639,0.7 7.662,0.787 7.678,0.82 7.699,0.852 7.715,0.864 7.723,0.871 
	7.73,0.871 7.74,0.871 7.744,0.873 7.748,0.878 7.779,0.901 7.783,0.904 7.787,0.914 7.789,0.918 7.793,0.918 7.801,0.914 
	7.805,0.916 7.813,0.93 7.814,0.943 7.813,0.975 7.814,0.98 7.816,0.986 7.816,0.992 7.814,0.999 7.809,1.006 7.799,1.011 
	7.791,1.017 7.787,1.025 7.787,1.033 7.791,1.049 7.791,1.056 7.791,1.063 7.785,1.078 7.785,1.088 7.82,1.205 7.82,1.211 
	7.818,1.225 7.82,1.232 7.826,1.24 7.832,1.247 7.838,1.255 7.838,1.26 7.832,1.26 7.795,1.26 7.762,1.266 7.744,1.264 7.736,1.258 
	7.732,1.25 7.721,1.238 7.699,1.218 7.693,1.225 7.684,1.264 7.66,1.354 7.637,1.445 7.613,1.537 7.59,1.629 7.58,1.674 7.57,1.7 
	7.551,1.723 7.508,1.762 7.477,1.799 7.438,1.844 7.398,1.889 7.359,1.934 7.32,1.979 7.281,2.023 7.242,2.068 7.203,2.114 
	7.164,2.16 7.117,2.194 7.072,2.23 7.025,2.266 6.979,2.301 6.932,2.336 6.885,2.371 6.838,2.407 6.791,2.443 6.748,2.477 
	6.701,2.504 6.629,2.529 6.531,2.563 6.432,2.598 6.336,2.631 6.236,2.666 6.139,2.7 6.04,2.733 5.942,2.769 5.843,2.802 
	5.792,2.82 5.776,2.827 5.72,2.878 5.64,2.982 5.603,3.015 5.591,3.026 5.567,3.071 5.558,3.086 5.53,3.106 5.521,3.118 
	5.521,3.134 5.53,3.149 5.542,3.157 5.55,3.169 5.554,3.19 5.546,3.206 5.534,3.211 5.521,3.214 5.507,3.224 5.497,3.229 
	5.489,3.215 5.478,3.165 5.474,3.153 5.464,3.146 5.429,3.136 5.413,3.134 5.399,3.138 5.392,3.152 5.392,3.157 5.397,3.173 
	5.396,3.182 5.39,3.214 5.378,3.249 5.364,3.28 5.36,3.297 5.356,3.312 5.358,3.339 5.36,3.356 5.36,3.364 5.354,3.368 5.345,3.37 
	5.341,3.37 5.341,3.375 5.341,3.384 5.351,3.435 5.347,3.45 5.327,3.469 5.321,3.472 5.312,3.478 5.306,3.479 5.298,3.495 
	5.294,3.51 5.286,3.567 5.286,3.573 5.282,3.575 5.271,3.582 5.261,3.585 5.251,3.586 5.243,3.588 5.235,3.597 5.231,3.608 
	5.231,3.655 5.224,3.69 5.177,3.788 5.169,3.823 5.161,3.838 5.147,3.85 5.142,3.866 5.142,3.896 5.147,3.925 5.157,3.938 
	5.177,3.95 5.175,3.962 5.161,3.978 5.151,3.995 5.147,4.011 5.149,4.025 5.147,4.04 5.142,4.053 5.112,4.073 5.04,4.102 
	5.009,4.119 4.972,4.151 4.958,4.172 4.948,4.192 4.948,4.215 4.968,4.249 4.972,4.269 4.964,4.284 4.944,4.288 4.925,4.288 
	4.909,4.292 4.901,4.305 4.893,4.343 4.886,4.358 4.866,4.38 4.843,4.399 4.829,4.385 4.821,4.378 4.813,4.374 4.805,4.374 
	4.792,4.377 4.784,4.377 4.771,4.374 4.744,4.364 4.73,4.362 4.675,4.364 4.656,4.359 4.646,4.347 4.639,4.33 4.627,4.315 
	4.621,4.312 4.604,4.306 4.599,4.3 4.594,4.294 4.59,4.278 4.585,4.271 4.571,4.261 4.555,4.253 4.542,4.242 4.536,4.226 
	4.533,4.21 4.513,4.172 4.505,4.126 4.482,4.093 4.482,4.076 4.5,4.044 4.502,4.033 4.498,4.025 4.482,4.017 4.463,4.017 
	4.458,4.015 4.446,4.005 4.441,4.003 4.401,3.964 4.38,3.954 4.352,3.957 4.324,3.973 4.272,3.989 4.243,3.984 4.224,3.964 
	4.208,3.94 4.188,3.923 4.167,3.917 4.147,3.917 4.128,3.914 4.105,3.902 4.091,3.892 4.065,3.864 4.051,3.853 4.037,3.847 
	4.021,3.845 4.008,3.841 4.003,3.833 4.002,3.833 3.97,3.837 3.961,3.84 3.953,3.844 3.946,3.849 3.939,3.86 3.932,3.888 
	3.927,3.899 3.914,3.913 3.854,3.958 3.822,3.976 3.814,3.982 3.809,3.983 3.794,3.983 3.781,3.979 3.746,3.959 3.735,3.95 
	3.729,3.933 3.731,3.92 3.835,3.784 3.844,3.767 3.808,3.771 3.773,3.78 3.747,3.778 3.73,3.743 3.73,3.735 3.733,3.722 
	3.732,3.714 3.729,3.704 3.716,3.687 3.712,3.677 3.714,3.662 3.72,3.642 3.729,3.624 3.737,3.611 3.75,3.603 3.764,3.599 
	3.779,3.598 3.795,3.599 3.812,3.604 3.844,3.621 3.859,3.624 3.875,3.616 3.889,3.601 3.899,3.582 3.911,3.568 3.972,3.54 
	3.984,3.526 3.984,3.519 3.979,3.514 3.973,3.509 3.965,3.501 3.964,3.495 3.964,3.48 3.963,3.474 3.956,3.458 3.939,3.433 
	3.937,3.417 3.938,3.411 3.94,3.406 3.944,3.399 3.943,3.393 3.938,3.378 3.938,3.372 3.938,3.364 3.939,3.356 3.944,3.343 
	3.945,3.334 3.944,3.325 3.939,3.312 3.939,3.302 3.938,3.295 3.931,3.292 3.923,3.29 3.918,3.284 3.918,3.278 3.924,3.257 
	3.926,3.243 3.926,3.235 3.923,3.228 3.919,3.222 3.906,3.216 3.901,3.212 3.898,3.196 3.903,3.18 3.906,3.167 3.895,3.157 
	3.864,3.15 3.853,3.144 3.848,3.142 3.848,3.149 3.844,3.157 3.834,3.175 3.831,3.183 3.826,3.197 3.813,3.208 3.798,3.214 
	3.782,3.218 3.729,3.215 3.716,3.22 3.709,3.224 3.701,3.226 3.695,3.228 3.69,3.243 3.657,3.292 3.635,3.313 3.511,3.387 
	3.483,3.409 3.463,3.437 3.448,3.463 3.442,3.479 3.441,3.497 3.437,3.513 3.425,3.524 3.393,3.542 3.363,3.565 3.338,3.591 
	3.296,3.653 3.284,3.679 3.275,3.687 3.262,3.69 3.246,3.696 3.236,3.708 3.222,3.733 3.204,3.751 3.137,3.798 3.127,3.808 
	3.116,3.825 3.107,3.844 3.104,3.858 3.115,3.902 3.115,3.921 3.104,3.948 3.098,3.956 3.093,3.96 3.087,3.964 3.079,3.972 
	3.076,3.983 3.081,3.998 3.088,4.014 3.093,4.028 3.093,4.04 3.086,4.079 3.079,4.094 3.077,4.101 3.074,4.118 3.069,4.122 
	3.063,4.126 3.059,4.132 3.057,4.141 3.056,4.149 3.062,4.162 3.087,4.181 3.098,4.196 3.162,4.262 3.167,4.274 3.174,4.292 
	3.186,4.308 3.217,4.331 3.242,4.356 3.262,4.39 3.263,4.421 3.231,4.438 3.2,4.441 3.195,4.448 3.195,4.468 3.193,4.476 
	3.186,4.49 3.184,4.499 3.186,4.503 3.188,4.51 3.188,4.515 3.188,4.521 3.177,4.528 3.174,4.534 3.178,4.552 3.194,4.575 
	3.214,4.599 3.231,4.614 3.279,4.638 3.29,4.654 3.358,4.726 3.373,4.747 3.413,4.835 3.43,4.901 3.43,4.968 3.408,5.024 
	3.38,5.053 3.348,5.063 3.313,5.057 3.28,5.035 3.271,5.021 3.264,5.014 3.253,5.014 3.234,5.048 3.229,5.05 3.213,5.052 3.2,5.079 
	3.191,5.104 3.191,5.136 3.196,5.169 3.211,5.2 3.232,5.231 3.257,5.255 3.283,5.271 3.32,5.29 3.337,5.294 3.345,5.298 3.37,5.316 
	3.393,5.323 3.425,5.356 3.451,5.367 3.468,5.377 3.478,5.4 3.488,5.406 3.543,5.426 3.622,5.47 3.747,5.528 3.886,5.604 
	4.007,5.66 4.021,5.669 4.11,5.747 4.115,5.754 4.119,5.757 4.132,5.774 4.133,5.778 4.137,5.783 4.142,5.81 4.153,5.835 
	4.167,5.858 4.206,5.901 4.258,5.936 4.265,5.947 4.271,5.962 4.324,6.024 4.333,6.04 4.337,6.058 4.339,6.075 4.345,6.095 
	4.357,6.109 4.388,6.138 4.405,6.163 4.421,6.197 4.432,6.231 4.436,6.265 4.435,6.271 4.431,6.283 4.431,6.292 4.433,6.3 
	4.439,6.312 4.444,6.326 4.527,6.438 4.543,6.47 4.544,6.479 4.542,6.487 4.54,6.493 4.538,6.502 4.537,6.513 4.538,6.518 
	4.546,6.524 4.619,6.639 4.66,6.684 4.751,6.751 4.764,6.765 4.789,6.802 4.803,6.81 4.88,6.882 4.896,6.903 4.906,6.926 
	4.912,6.943 4.952,7.02 4.958,7.04 4.952,7.056 4.933,7.06 4.933,7.065 4.95,7.085 4.962,7.094 4.985,7.104 5.003,7.116 
	5.034,7.146 5.058,7.175 5.077,7.208 5.087,7.24 5.089,7.274 5.075,7.308 5.069,7.326 5.073,7.341 5.114,7.388 5.126,7.409 
	5.14,7.425 5.142,7.428 5.146,7.438 5.151,7.448 5.157,7.461 5.157,7.479 5.151,7.489 5.146,7.495 5.142,7.501 5.142,7.511 
	5.157,7.507 5.165,7.519 5.167,7.55 5.175,7.563 5.183,7.57 5.194,7.575 5.206,7.581 5.214,7.589 5.224,7.599 5.228,7.61 
	5.228,7.624 5.224,7.631 5.218,7.636 5.21,7.64 5.194,7.642 5.187,7.646 5.185,7.649 5.187,7.651 5.196,7.655 5.202,7.665 
	5.21,7.677 5.21,7.691 5.214,7.698 5.222,7.689 5.229,7.674 5.231,7.659 5.239,7.649 5.253,7.646 5.269,7.65 5.274,7.665 
	5.276,7.688 5.274,7.694 5.271,7.702 5.257,7.712 5.253,7.722 5.263,7.728 5.269,7.737 5.271,7.749 5.272,7.753 5.276,7.757 
	5.298,7.774 5.304,7.771 5.315,7.77 5.323,7.773 5.327,7.783 5.327,7.813 5.327,7.823 5.341,7.841 5.356,7.853 5.364,7.862 
	5.351,7.878 5.356,7.891 5.362,7.909 5.368,7.96 5.382,8.007 5.399,8.036 5.474,8.125 5.481,8.146 5.479,8.16 5.472,8.174 
	5.468,8.192 5.47,8.202 5.485,8.228 5.489,8.244 5.487,8.247 5.487,8.251 5.483,8.255 5.483,8.261 5.487,8.265 5.489,8.267 
	5.491,8.27 5.495,8.271 5.499,8.278 5.505,8.283 5.509,8.29 5.511,8.301 5.515,8.317 5.536,8.351 5.538,8.368 5.534,8.376 
	5.53,8.38 5.526,8.384 5.526,8.396 5.528,8.404 5.532,8.412 5.538,8.419 5.56,8.44 5.573,8.457 5.591,8.492 5.597,8.5 5.612,8.52 
	5.614,8.528 5.616,8.547 5.62,8.554 5.653,8.585 5.661,8.595 5.663,8.603 5.663,8.62 5.667,8.627 5.683,8.654 5.687,8.663 
	5.69,8.68 5.698,8.69 5.72,8.708 5.784,8.823 5.792,8.833 5.81,8.848 5.815,8.854 5.819,8.863 5.825,8.88 5.831,8.887 5.837,8.882 
	5.845,8.894 5.858,8.936 5.882,8.958 5.892,8.972 5.89,8.983 5.913,9.018 5.921,9.035 5.917,9.049 5.931,9.064 5.935,9.068 
	5.931,9.078 5.925,9.092 5.921,9.102 5.929,9.109 5.94,9.117 5.948,9.127 5.944,9.141 5.952,9.15 5.956,9.184 5.968,9.208 
	5.976,9.227 5.979,9.246 5.976,9.261 5.962,9.266 5.948,9.266 5.938,9.268 5.935,9.285 5.937,9.3 5.942,9.313 5.96,9.33 
	5.979,9.346 6.102,9.41 6.127,9.432 6.16,9.447 6.174,9.455 6.184,9.469 6.189,9.475 6.199,9.477 6.205,9.48 6.211,9.49 6.223,9.51 
	6.236,9.525 6.238,9.531 6.24,9.537 6.234,9.545 6.236,9.551 6.25,9.568 6.258,9.577 6.27,9.58 6.279,9.587 6.291,9.602 
	6.299,9.621 6.303,9.637 6.316,9.672 6.316,9.688 6.297,9.694 6.305,9.709 6.311,9.743 6.314,9.76 6.326,9.779 6.328,9.786 
	6.336,9.811 6.342,9.828 6.346,9.881 6.342,9.9 6.336,9.912 6.326,9.924 6.32,9.939 6.352,9.943 6.387,9.952 6.414,9.973 
	6.426,10.004 6.424,10.012 6.422,10.019 6.42,10.025 6.422,10.036 6.426,10.044 6.439,10.057 6.441,10.062 6.451,10.062 
	6.494,10.08 6.551,10.12 6.592,10.162 6.605,10.184 6.617,10.215 6.619,10.244 6.604,10.266 6.611,10.278 6.625,10.289 
	6.639,10.296 6.645,10.301 6.65,10.309 6.678,10.352 6.699,10.366 6.703,10.374 6.705,10.381 6.703,10.402 6.711,10.413 
	6.744,10.479 6.758,10.497 6.813,10.543 6.82,10.553 6.826,10.564 6.828,10.601 6.842,10.668 6.852,10.696 6.854,10.715 
	6.861,10.729 6.947,10.814 6.99,10.882 7.002,10.893 7.012,10.897 7.021,10.905 7.055,10.953 7.084,11.018 7.09,11.047 
	7.094,11.106 7.082,11.173 7.072,11.197 7.064,11.224 7.061,11.246 7.055,11.262 7.051,11.282 7.037,11.313 7.029,11.348 
	7.025,11.356 7.018,11.352 7.01,11.344 7.002,11.336 6.998,11.326 7.002,11.314 7.002,11.311 6.996,11.308 6.982,11.308 
	6.975,11.308 6.971,11.311 6.955,11.318 6.945,11.328 6.938,11.356 6.932,11.369 6.93,11.381 6.938,11.393 6.947,11.399 
	6.959,11.402 6.971,11.402 6.982,11.4 6.986,11.396 6.99,11.392 6.996,11.388 7.004,11.39 7.008,11.395 7.008,11.4 7.006,11.406 
	7.004,11.412 7.014,11.467 7.014,11.467 7.014,11.488 7.018,11.495 7.018,11.5 7.02,11.506 7.014,11.51 7.018,11.52 7.014,11.531 
	7.01,11.539 7,11.542 6.998,11.549 7.01,11.608 7.021,11.616 7.029,11.609 7.025,11.593 7.068,11.604 7.078,11.608 7.084,11.619 
	7.088,11.631 7.094,11.643 7.107,11.646 7.121,11.652 7.131,11.668 7.135,11.685 7.139,11.708 7.143,11.713 7.145,11.718 
	7.143,11.725 7.139,11.727 7.115,11.734 7.133,11.762 7.137,11.768 7.145,11.771 7.164,11.773 7.172,11.776 7.184,11.787 
	7.197,11.809 7.207,11.818 7.234,11.833 7.244,11.846 7.25,11.863 7.242,11.88 7.238,11.891 7.242,11.895 7.248,11.896 7.252,11.9 
	7.27,11.92 7.277,11.932 7.281,11.943 7.283,11.979 7.291,11.994 7.303,12.006 7.336,12.021 7.34,12.025 7.346,12.031 7.352,12.039 
	7.355,12.047 7.361,12.055 7.371,12.059 7.377,12.061 7.385,12.064 7.391,12.068 7.395,12.072 7.396,12.082 7.404,12.086 
	7.42,12.092 7.467,12.119 7.482,12.133 7.494,12.143 7.523,12.152 7.586,12.184 7.621,12.211 7.625,12.215 7.623,12.24 
	7.625,12.246 7.633,12.254 7.66,12.273 7.666,12.281 7.674,12.297 7.709,12.352 7.717,12.369 7.723,12.383 7.734,12.393 
	7.775,12.398 7.791,12.404 7.828,12.439 7.834,12.447 7.838,12.455 7.838,12.465 7.836,12.473 7.826,12.479 7.813,12.477 
	7.832,12.496 7.863,12.512 7.887,12.525 7.881,12.549 7.875,12.553 7.867,12.555 7.861,12.561 7.859,12.566 7.863,12.57 
	7.883,12.576 7.887,12.578 7.891,12.592 7.904,12.596 7.918,12.6 7.934,12.604 7.943,12.611 7.967,12.637 7.979,12.645 
	7.984,12.646 7.99,12.645 8,12.643 8.012,12.645 8.033,12.662 8.164,12.736 8.215,12.754 8.229,12.768 8.266,12.791 8.41,12.848 
	8.416,12.854 8.422,12.857 8.43,12.877 8.434,12.879 8.441,12.883 8.445,12.889 8.447,12.896 8.449,12.912 8.453,12.916 
	8.504,12.945 8.514,12.955 8.531,12.961 8.568,12.957 8.586,12.963 8.602,12.973 8.611,12.984 8.625,12.992 8.658,12.998 8.67,13 
	8.748,13.037 8.762,13.047 8.764,13.055 8.764,13.064 8.764,13.08 8.766,13.088 8.771,13.09 8.785,13.096 8.848,13.141 
	8.896,13.184 8.92,13.197 8.98,13.221 9.004,13.234 9.01,13.238 9.018,13.246 9.023,13.256 9.025,13.268 9.07,13.256 9.117,13.27 
	9.203,13.307 9.25,13.316 9.293,13.34 9.316,13.344 9.324,13.348 9.33,13.355 9.34,13.389 9.346,13.4 9.359,13.395 9.371,13.398 
	9.383,13.406 9.396,13.41 9.428,13.408 9.441,13.414 9.471,13.436 9.506,13.451 9.52,13.465 9.664,13.529 9.748,13.59 9.777,13.6 
	9.9,13.613 9.945,13.633 9.979,13.639 9.986,13.643 10.002,13.654 10.008,13.656 10.016,13.656 10.02,13.664 10.027,13.674 
	10.035,13.68 10.043,13.68 10.049,13.68 10.057,13.682 10.076,13.695 10.119,13.746 10.127,13.762 10.127,13.777 10.129,13.793 
	10.148,13.805 10.186,13.813 10.205,13.822 10.213,13.836 10.219,13.842 10.25,13.861 10.262,13.871 10.264,13.881 10.262,13.896 
	10.266,13.904 10.273,13.908 10.322,13.912 10.34,13.916 10.355,13.924 10.398,13.949 10.418,13.967 10.453,14.01 10.479,14.031 
	10.508,14.045 10.639,14.076 10.643,14.078 10.654,14.088 10.668,14.1 10.676,14.105 10.693,14.111 10.725,14.117 10.738,14.119 
	10.75,14.131 10.762,14.156 10.764,14.158 10.791,14.178 10.813,14.205 10.818,14.209 10.824,14.211 10.826,14.215 10.83,14.242 
	10.84,14.275 10.844,14.289 10.852,14.371 10.855,14.389 10.859,14.402 10.855,14.422 10.844,14.438 10.84,14.447 10.84,14.457 
	10.844,14.455 10.869,14.451 10.885,14.455 10.902,14.463 10.93,14.484 10.969,14.5 10.98,14.51 11.004,14.537 11.014,14.547 
	11.031,14.557 11.072,14.596 11.088,14.598 11.133,14.613 11.148,14.623 11.182,14.646 11.195,14.652 11.207,14.66 11.213,14.676 
	11.225,14.707 11.232,14.717 11.262,14.725 11.275,14.732 11.32,14.773 11.324,14.777 11.332,14.777 11.336,14.779 11.34,14.785 
	11.346,14.793 11.348,14.797 11.408,14.852 11.43,14.867 11.453,14.877 11.479,14.881 11.496,14.889 11.539,14.938 11.586,14.971 
	11.6,14.984 11.631,14.969 11.672,14.965 11.754,14.973 11.795,14.969 11.814,14.963 11.869,14.932 11.889,14.926 11.912,14.926 
	11.93,14.92 11.943,14.906 11.98,14.863 12.01,14.836 12.023,14.82 12.041,14.795 12.09,14.688 12.09,14.672 12.09,14.656 
	12.082,14.641 12.064,14.611 12.061,14.598 12.059,14.576 12.053,14.543 12.039,14.514 12.031,14.486 12.035,14.451 12.061,14.426 
	12.094,14.424 12.131,14.428 12.166,14.422 12.201,14.398 12.303,14.301 12.303,14.301 12.303,14.242 12.301,14.213 12.291,14.189 
	12.279,14.176 12.266,14.158 12.232,14.133 12.221,14.129 12.18,14.123 12.193,14.104 12.205,14.059 12.213,14.039 12.217,14.039 
	12.23,14.037 12.236,14.035 12.277,13.996 12.303,13.98 12.322,13.973 12.346,13.967 12.365,13.959 12.383,13.941 12.387,13.928 
	12.383,13.924 12.377,13.92 12.375,13.916 12.377,13.908 12.381,13.902 12.416,13.883 12.424,13.871 12.445,13.826 12.523,13.742 
	12.535,13.725 12.551,13.682 12.557,13.67 12.57,13.66 12.598,13.658 12.611,13.656 12.658,13.631 12.67,13.623 12.684,13.605 
	12.693,13.594 12.672,13.564 12.67,13.549 12.67,13.523 12.67,13.477 12.67,13.461 12.678,13.447 12.699,13.422 12.725,13.408 
	12.813,13.373 12.83,13.346 12.82,13.324 12.805,13.313 12.764,13.295 12.73,13.26 12.713,13.25 12.691,13.256 12.666,13.248 
	12.658,13.248 12.648,13.252 12.633,13.264 12.625,13.268 12.605,13.268 12.586,13.262 12.57,13.25 12.555,13.238 12.527,13.203 
	12.512,13.16 12.479,13.076 12.445,12.994 12.41,12.91 12.377,12.828 12.369,12.803 12.365,12.779 12.371,12.754 12.422,12.678 
	12.426,12.662 12.428,12.646 12.432,12.631 12.441,12.615 12.449,12.611 12.471,12.604 12.477,12.602 12.477,12.594 12.469,12.57 
	12.473,12.557 12.484,12.541 12.5,12.527 12.525,12.518 12.537,12.486 12.551,12.486 12.57,12.486 12.582,12.479 12.584,12.463 
	12.566,12.445 12.547,12.416 12.533,12.404 12.486,12.369 12.475,12.357 12.43,12.289 12.416,12.277 12.4,12.26 12.395,12.246 
	12.398,12.232 12.41,12.201 12.412,12.195 12.41,12.131 12.41,12.115 12.418,12.105 12.436,12.094 12.479,12.082 12.49,12.076 
	12.502,12.051 12.506,11.949 12.516,11.934 12.533,11.932 12.549,11.936 12.566,11.936 12.57,11.928 12.57,11.891 12.57,11.876 
	12.576,11.873 12.59,11.869 12.596,11.866 12.625,11.831 12.641,11.82 12.691,11.791 12.707,11.777 12.703,11.762 12.693,11.745 
	12.688,11.73 12.686,11.7 12.688,11.685 12.691,11.67 12.711,11.656 12.738,11.649 12.791,11.643 12.805,11.627 12.803,11.599 
	12.783,11.545 12.777,11.518 12.773,11.506 12.766,11.494 12.723,11.467 12.713,11.451 12.709,11.426 12.707,11.396 12.705,11.369 
	12.691,11.35 12.682,11.319 12.682,11.308 12.684,11.295 12.688,11.285 12.688,11.277 12.678,11.265 12.637,11.23 12.619,11.207 
	12.631,11.189 12.641,11.189 12.666,11.193 12.674,11.191 12.682,11.183 12.682,11.173 12.68,11.164 12.682,11.152 12.688,11.143 
	12.703,11.125 12.711,11.114 12.717,11.096 12.723,11.076 12.721,11.058 12.729,10.902 12.717,10.84 12.717,10.807 12.721,10.713 
	12.711,10.623 12.711,10.589 12.715,10.571 12.738,10.553 12.748,10.533 12.758,10.518 12.775,10.52 12.783,10.498 12.795,10.48 
	12.813,10.471 12.877,10.453 12.883,10.446 12.9,10.41 12.893,10.402 12.867,10.395 12.859,10.388 12.861,10.375 12.869,10.362 
	12.879,10.354 12.902,10.342 12.914,10.33 12.924,10.319 12.93,10.307 12.934,10.292 12.938,10.283 12.945,10.281 "/>
</svg>
