<?xml version="1.0" encoding="utf-8"?>
<!-- Generator: Adobe Illustrator 16.0.0, SVG Export Plug-In . SVG Version: 6.00 Build 0)  -->
<!DOCTYPE svg PUBLIC "-//W3C//DTD SVG 1.1//EN" "http://www.w3.org/Graphics/SVG/1.1/DTD/svg11.dtd">
<svg version="1.1" id="Layer_1" xmlns="http://www.w3.org/2000/svg" xmlns:xlink="http://www.w3.org/1999/xlink" x="0px" y="0px"
	 width="16px" height="16px" viewBox="0 0 16 16" enable-background="new 0 0 16 16" xml:space="preserve">
<g>
	<path fill="#000100" d="M14.832,3.697h-0.783V3.654c0-0.172-0.107-0.322-0.266-0.381c-0.971-0.354-1.962-0.535-2.946-0.535
		c-0.936,0-1.88,0.164-2.806,0.486c-0.926-0.322-1.87-0.486-2.807-0.486c-0.983,0-1.974,0.181-2.944,0.535
		C2.12,3.332,2.014,3.482,2.014,3.654v0.043H1.231c-0.225,0-0.406,0.181-0.406,0.404v7.73c0,0.223,0.182,0.404,0.406,0.404h13.601
		c0.224,0,0.404-0.182,0.404-0.404v-7.73C15.236,3.878,15.056,3.697,14.832,3.697 M13.238,3.941v6.092
		c-0.795-0.236-1.601-0.355-2.401-0.355c-0.8,0-1.605,0.119-2.401,0.355V3.941c0.796-0.261,1.603-0.393,2.401-0.393
		C11.637,3.549,12.443,3.681,13.238,3.941 M2.823,3.941c0.796-0.261,1.603-0.393,2.401-0.393s1.606,0.132,2.401,0.393v6.092
		C6.831,9.797,6.025,9.678,5.225,9.678s-1.605,0.119-2.401,0.355V3.941z M1.635,4.507h0.379v6.086c0,0.132,0.064,0.257,0.172,0.33
		c0.069,0.049,0.15,0.075,0.232,0.075c0.047,0,0.094-0.009,0.139-0.026c0.882-0.321,1.779-0.484,2.668-0.484
		c0.799,0,1.606,0.132,2.401,0.395v0.544H1.635V4.507z M14.427,11.426H8.436v-0.544c0.796-0.263,1.603-0.395,2.401-0.395
		c0.888,0,1.786,0.163,2.669,0.484c0.123,0.045,0.262,0.027,0.37-0.049c0.108-0.073,0.173-0.198,0.173-0.33V4.507h0.378V11.426z"/>
	<path fill="#000100" d="M4.233,5.895H6.35c0.224,0,0.405-0.182,0.405-0.404c0-0.224-0.182-0.406-0.405-0.406H4.233
		c-0.223,0-0.404,0.183-0.404,0.406C3.829,5.713,4.011,5.895,4.233,5.895"/>
	<path fill="#000100" d="M6.754,7.756c0-0.223-0.181-0.404-0.404-0.404H4.233c-0.223,0-0.404,0.182-0.404,0.404
		c0,0.225,0.182,0.406,0.404,0.406H6.35C6.573,8.162,6.754,7.98,6.754,7.756"/>
	<path fill="#000100" d="M10.085,5.895H12.2c0.225,0,0.405-0.182,0.405-0.404c0-0.224-0.181-0.406-0.405-0.406h-2.115
		c-0.224,0-0.405,0.183-0.405,0.406C9.68,5.713,9.861,5.895,10.085,5.895"/>
	<path fill="#000100" d="M10.085,8.162H12.2c0.225,0,0.405-0.182,0.405-0.406c0-0.223-0.181-0.404-0.405-0.404h-2.115
		c-0.224,0-0.405,0.182-0.405,0.404C9.68,7.98,9.861,8.162,10.085,8.162"/>
</g>
</svg>
